<?xml version="1.0" encoding="UTF-8"?>
<svg xmlns="http://www.w3.org/2000/svg" viewBox="0 0 842.97 591.15">
  <defs>
    <style>
      .cls-1 {
        fill: rgb(205, 214, 244);
        stroke: #1d1d1b;
        stroke-miterlimit: 10;
      }
    </style>
  </defs>
  <g id="Calque_1" data-name="Calque 1">
    <polygon class="cls-1" points="74.72 73.73 1.49 73.73 29.6 .5 102.83 .5 74.72 73.73"/>
    <polygon class="cls-1" points="221.98 73.73 148.75 73.73 176.86 .5 250.09 .5 221.98 73.73"/>
    <polygon class="cls-1" points="370.38 73.73 297.15 73.73 325.26 .5 398.49 .5 370.38 73.73"/>
    <polygon class="cls-1" points="518.77 73.73 445.55 73.73 473.66 .5 546.89 .5 518.77 73.73"/>
    <polygon class="cls-1" points="667.17 73.73 593.94 73.73 622.05 .5 695.28 .5 667.17 73.73"/>
    <polygon class="cls-1" points="814.14 73.73 740.91 73.73 769.02 .5 842.25 .5 814.14 73.73"/>
    <polygon class="cls-1" points="119.58 147.92 46.35 147.92 74.46 74.7 147.69 74.7 119.58 147.92"/>
    <polygon class="cls-1" points="267.7 147.92 194.47 147.92 222.58 74.7 295.81 74.7 267.7 147.92"/>
    <polygon class="cls-1" points="416.13 147.89 342.9 147.89 371.01 74.66 444.24 74.66 416.13 147.89"/>
    <polygon class="cls-1" points="564.36 148.04 491.13 148.04 519.24 74.81 592.47 74.81 564.36 148.04"/>
    <polygon class="cls-1" points="711.72 147.89 639.57 147.89 667.26 74.66 739.42 74.66 711.72 147.89"/>
    <path class="cls-1" d="M841.76,74.66h-27.13l-28.11,73.23h55.24c.31-24.35.1-49.87,0-73.23Z"/>
    <path class="cls-1" d="M45.62,148.34l-44.84-.41c-.05,24.94.26,49.02-.05,73.62h17.08l27.8-73.21Z"/>
  </g>
  <g id="Calque_2" data-name="Calque 2">
    <polygon class="cls-1" points="166.22 221.54 92.99 221.54 121.1 148.31 194.33 148.31 166.22 221.54"/>
    <polygon class="cls-1" points="314.62 221.54 241.39 221.54 269.5 148.31 342.73 148.31 314.62 221.54"/>
    <polygon class="cls-1" points="463.01 221.54 389.78 221.54 417.89 148.31 491.12 148.31 463.01 221.54"/>
    <polygon class="cls-1" points="611.41 221.54 538.18 221.54 566.29 148.31 639.52 148.31 611.41 221.54"/>
    <polygon class="cls-1" points="758.38 221.54 685.15 221.54 713.26 148.31 786.49 148.31 758.38 221.54"/>
    <path class="cls-1" d="M91.93,222.51H18.7L.74,270.31c-.2,9.49.08,17.79.08,25.39l64.22-.4,26.9-72.79Z"/>
    <polygon class="cls-1" points="211.94 295.74 138.71 295.74 166.82 222.51 240.05 222.51 211.94 295.74"/>
    <polygon class="cls-1" points="360.37 295.7 287.14 295.7 315.25 222.47 388.48 222.47 360.37 295.7"/>
    <polygon class="cls-1" points="508.6 295.85 435.37 295.85 463.48 222.62 536.71 222.62 508.6 295.85"/>
    <polygon class="cls-1" points="655.96 295.7 583.81 295.7 611.5 222.47 683.66 222.47 655.96 295.7"/>
    <polygon class="cls-1" points="803.99 295.85 730.76 295.85 758.87 222.62 832.1 222.62 803.99 295.85"/>
  </g>
  <g id="Calque_3" data-name="Calque 3">
    <polygon class="cls-1" points="110.56 368.93 37.33 368.93 65.44 295.7 138.67 295.7 110.56 368.93"/>
    <polygon class="cls-1" points="257.81 368.93 184.58 368.93 212.69 295.7 285.92 295.7 257.81 368.93"/>
    <polygon class="cls-1" points="406.21 369.61 332.98 369.61 361.09 296.38 434.32 296.38 406.21 369.61"/>
    <polygon class="cls-1" points="554.61 368.93 481.38 368.93 509.49 295.7 582.72 295.7 554.61 368.93"/>
    <polygon class="cls-1" points="702.29 369.39 629.06 369.39 657.17 296.16 730.4 296.16 702.29 369.39"/>
    <path class="cls-1" d="M841.76,295.7h-36.91l-28.11,73.23h65.02c.15-24.19.11-47.89,0-73.23Z"/>
    <polygon class="cls-1" points="155.71 443.12 82.48 443.12 110.59 369.9 183.82 369.9 155.71 443.12"/>
    <polygon class="cls-1" points="303.54 443.12 230.31 443.12 258.42 369.9 331.65 369.9 303.54 443.12"/>
    <polygon class="cls-1" points="452.19 442.3 378.96 442.3 407.07 369.07 480.3 369.07 452.19 442.3"/>
    <polygon class="cls-1" points="600.19 443.24 526.96 443.24 555.07 370.01 628.3 370.01 600.19 443.24"/>
    <polygon class="cls-1" points="747.56 443.09 675.4 443.09 703.1 369.86 775.25 369.86 747.56 443.09"/>
    <path class="cls-1" d="M841.86,390.31l-18.36,51.88,18.23.15c.31-4.33.33-35.86.14-52.03Z"/>
    <path class="cls-1" d="M36,369.9H.89c-.53,24.9-.43,49.12-.21,73.23l8.14-.13,27.19-73.1Z"/>
  </g>
  <g id="Calque_4" data-name="Calque 4">
    <path class="cls-1" d="M82.68,443H9.45l-8.56,23.68c0,16.37-.03,33.04,0,49.55h53.68l28.11-73.23Z"/>
    <polygon class="cls-1" points="201.83 516.23 128.6 516.23 156.71 443 229.94 443 201.83 516.23"/>
    <polygon class="cls-1" points="350.23 516.91 277 516.91 305.11 443.68 378.34 443.68 350.23 516.91"/>
    <polygon class="cls-1" points="497.71 516.68 424.48 516.68 452.59 443.45 525.82 443.45 497.71 516.68"/>
    <polygon class="cls-1" points="646.3 516.69 573.07 516.69 601.18 443.46 674.41 443.46 646.3 516.69"/>
    <polygon class="cls-1" points="793.98 516.23 720.75 516.23 748.87 443 822.09 443 793.98 516.23"/>
    <polygon class="cls-1" points="99.73 590.42 26.5 590.42 54.61 517.19 127.84 517.19 99.73 590.42"/>
    <polygon class="cls-1" points="247.52 590.65 173.14 590.65 201.69 517.42 276.08 517.42 247.52 590.65"/>
    <polygon class="cls-1" points="396.21 589.59 322.98 589.59 351.09 516.36 424.32 516.36 396.21 589.59"/>
    <polygon class="cls-1" points="543.98 590.08 470.75 590.08 498.86 516.85 572.09 516.85 543.98 590.08"/>
    <polygon class="cls-1" points="691.57 590.38 619.42 590.38 647.11 517.15 719.27 517.15 691.57 590.38"/>
    <path class="cls-1" d="M841.88,517.31h-47.4l-28.11,73.23h73.23l2.13-7.69c.52-22.71-.23-43.52.15-65.54Z"/>
  </g>
</svg>