<?xml version="1.0" encoding="utf-8"?>
<!-- Generator: Adobe Illustrator 27.5.0, SVG Export Plug-In . SVG Version: 6.00 Build 0)  -->
<svg version="1.1" xmlns="http://www.w3.org/2000/svg" xmlns:xlink="http://www.w3.org/1999/xlink" x="0px" y="0px"
	 viewBox="0 0 500 500" style="enable-background:new 0 0 500 500;" xml:space="preserve">
<g id="Floor">
	<path id="Floor_1_" style="fill:#F0F0F0;" d="M101.241,426.64c85.135,45.442,223.165,45.443,308.298,0.001
		c85.134-45.443,85.134-119.12,0-164.562c-85.135-45.443-223.165-45.443-308.3-0.001C16.106,307.52,16.106,381.198,101.241,426.64z"
		/>
</g>
<g id="Shadow_1_">
	<path id="Shadow_7_" style="fill:#E0E0E0;" d="M252.703,365.387l62.213,35.771c0.717,0.414,1.881,0.414,2.598,0l110.123-63.58
		c0.717-0.414,0.717-1.086,0-1.5l-62.213-35.771c-0.717-0.414-1.881-0.414-2.598,0l-110.123,63.58
		C251.986,364.301,251.986,364.972,252.703,365.387z"/>
	<path id="Shadow" style="fill:#E0E0E0;" d="M442.763,383.96c-0.202-1.593-2.111-2.401-3.162-3.007l-42.485-24.601
		c-1.876-1.084-4.199-1.125-6.076-0.042l-42.471,24.495c-1.252,0.723-3.299,2.104-3.299,3.721s1.118,1.974,3.176,3.163
		c2.058,1.189,42.171,24.363,42.171,24.363c2.149,1.241,4.797,1.242,6.946,0l43.513-24.928
		C442.508,386.148,442.894,384.994,442.763,383.96z"/>
</g>
<g id="Servers">
	<g id="Server_1_">
		<g id="XMLID_1318_">
			<path id="XMLID_1325_" style="fill:none;stroke:#27DEBF;stroke-miterlimit:10;" d="M297.728,257.894l10.021-5.785
				c1.196-0.69,3.135-0.69,4.33,0l62.828,36.274"/>
			<path id="XMLID_1324_" style="fill:none;stroke:#27DEBF;stroke-miterlimit:10;" d="M293.665,255.549l14.084-8.131
				c1.196-0.69,3.134-0.69,4.33,0l66.89,38.619"/>
			<path id="XMLID_1323_" style="fill:none;stroke:#27DEBF;stroke-miterlimit:10;" d="M383.031,283.691l-70.952-40.964
				c-1.196-0.69-3.135-0.691-4.331-0.001l-18.144,10.469"/>
			<path id="XMLID_1322_" style="fill:none;stroke:#27DEBF;stroke-miterlimit:10;" d="M387.093,281.346l-75.014-43.309
				c-1.196-0.69-3.134-0.691-4.33,0l-22.221,12.822"/>
		</g>
		<g id="XMLID_1245_">
			<path id="XMLID_1296_" style="fill:#37474F;" d="M234.619,45.746l-64.725,37.369c-1.196,0.69-2.165,2.369-2.165,3.75v177.927
				c0,1.381,0.969,3.06,2.165,3.75l64.726,37.369c1.196,0.69,3.134,0.69,4.33,0l64.723-37.369c1.196-0.69,2.165-2.369,2.165-3.75
				V86.866c0-1.381-0.969-3.06-2.165-3.75l-64.724-37.369C237.753,45.056,235.815,45.056,234.619,45.746z"/>
			<path id="XMLID_1295_" style="fill:#263238;" d="M305.836,86.862v177.93c0,1.38-0.97,3.06-2.16,3.75l-64.73,37.37
				c-0.59,0.35-1.38,0.52-2.16,0.52v-182.93c0.78,0,1.56-0.18,2.16-0.52l64.73-37.37l0.59-0.49l0.77-0.64
				C305.526,85.222,305.836,86.082,305.836,86.862z"/>
			<g id="XMLID_1290_">
				<path id="XMLID_1294_" style="fill:#455A64;" d="M178.018,104.377l48.478,27.988c1.196,0.69,2.165,2.369,2.165,3.75
					l-0.001,18.453c0,1.381-0.969,1.94-2.165,1.25l-48.476-27.988c-1.196-0.69-2.165-2.369-2.165-3.75l-0.001-18.453
					C175.853,104.246,176.822,103.687,178.018,104.377z"/>
				<path id="XMLID_1293_" style="fill:#27DEBF;" d="M179.915,112.508c0,1.295,0.969,2.905,2.165,3.595l40.353,23.297
					c1.196,0.69,2.165,0.2,2.165-1.095c0-1.295-0.969-2.905-2.165-3.595l-40.353-23.297
					C180.884,110.723,179.915,111.213,179.915,112.508z"/>
				<path id="XMLID_1292_" style="fill:#263238;" d="M179.915,121.889c0,1.295,0.969,2.905,2.165,3.595l40.353,23.298
					c1.196,0.69,2.165,0.2,2.165-1.095c0-1.295-0.969-2.905-2.165-3.595l-40.353-23.298
					C180.884,120.104,179.915,120.594,179.915,121.889z"/>
				<path id="XMLID_1291_" style="fill:#27DEBF;" d="M182.08,120.794l22.208,12.822l0,4.69l-22.208-12.821
					c-1.196-0.69-2.165-2.3-2.165-3.595C179.915,120.594,180.884,120.104,182.08,120.794z"/>
			</g>
			<g id="XMLID_1285_">
				<path id="XMLID_1289_" style="fill:#455A64;" d="M178.018,137.21l48.478,27.988c1.196,0.69,2.165,2.369,2.165,3.75
					l-0.001,18.453c0,1.381-0.969,1.94-2.165,1.25l-48.476-27.988c-1.196-0.69-2.165-2.369-2.165-3.75l-0.001-18.453
					C175.853,137.079,176.822,136.52,178.018,137.21z"/>
				<path id="XMLID_1288_" style="fill:#27DEBF;" d="M179.915,145.341c0,1.295,0.969,2.905,2.165,3.595l40.353,23.298
					c1.196,0.69,2.165,0.2,2.165-1.095c0-1.295-0.969-2.905-2.165-3.595l-40.353-23.298
					C180.884,143.556,179.915,144.046,179.915,145.341z"/>
				<path id="XMLID_1287_" style="fill:#263238;" d="M179.915,154.722c0,1.295,0.969,2.905,2.165,3.595l40.353,23.298
					c1.196,0.69,2.165,0.2,2.165-1.095c0-1.295-0.969-2.905-2.165-3.595l-40.353-23.298
					C180.884,152.937,179.915,153.427,179.915,154.722z"/>
				<path id="XMLID_1286_" style="fill:#27DEBF;" d="M182.08,153.627l34.394,19.857l0,4.69l-34.394-19.857
					c-1.196-0.69-2.165-2.3-2.165-3.595S180.884,152.937,182.08,153.627z"/>
			</g>
			<g id="XMLID_1280_">
				<path id="XMLID_1284_" style="fill:#455A64;" d="M178.018,170.043l48.478,27.988c1.196,0.69,2.165,2.369,2.165,3.75
					l-0.001,18.453c0,1.381-0.969,1.94-2.165,1.25l-48.476-27.988c-1.196-0.69-2.165-2.369-2.165-3.75l-0.001-18.453
					C175.853,169.912,176.822,169.353,178.018,170.043z"/>
				<path id="XMLID_1283_" style="fill:#27DEBF;" d="M179.915,178.174c0,1.295,0.969,2.905,2.165,3.595l40.353,23.298
					c1.196,0.69,2.165,0.2,2.165-1.095c0-1.295-0.969-2.905-2.165-3.595l-40.353-23.298
					C180.884,176.389,179.915,176.879,179.915,178.174z"/>
				<path id="XMLID_1282_" style="fill:#263238;" d="M179.915,187.555c0,1.295,0.969,2.905,2.165,3.595l40.353,23.298
					c1.196,0.69,2.165,0.2,2.165-1.095c0-1.295-0.969-2.905-2.165-3.595L182.08,186.46
					C180.884,185.77,179.915,186.26,179.915,187.555z"/>
				<path id="XMLID_1281_" style="fill:#27DEBF;" d="M182.08,186.46l14.083,8.131l0,4.69l-14.083-8.13
					c-1.196-0.69-2.165-2.3-2.165-3.595S180.884,185.77,182.08,186.46z"/>
			</g>
			<g id="XMLID_1275_">
				<path id="XMLID_1279_" style="fill:#455A64;" d="M178.018,202.876l48.478,27.988c1.196,0.69,2.165,2.369,2.165,3.75
					l-0.001,18.453c0,1.381-0.969,1.94-2.165,1.25l-48.476-27.988c-1.196-0.69-2.165-2.369-2.165-3.75l-0.001-18.453
					C175.853,202.745,176.822,202.186,178.018,202.876z"/>
				<path id="XMLID_1278_" style="fill:#27DEBF;" d="M179.915,211.007c0,1.295,0.969,2.905,2.165,3.595l40.353,23.298
					c1.196,0.69,2.165,0.2,2.165-1.095c0-1.295-0.969-2.905-2.165-3.595l-40.353-23.298
					C180.884,209.222,179.915,209.712,179.915,211.007z"/>
				<path id="XMLID_1277_" style="fill:#263238;" d="M179.915,220.388c0,1.295,0.969,2.905,2.165,3.595l40.353,23.298
					c1.196,0.69,2.165,0.2,2.165-1.095c0-1.295-0.969-2.905-2.165-3.595l-40.353-23.298
					C180.884,218.603,179.915,219.093,179.915,220.388z"/>
				<path id="XMLID_1276_" style="fill:#27DEBF;" d="M182.08,219.293l22.208,12.822l0,4.69l-22.208-12.821
					c-1.196-0.69-2.165-2.3-2.165-3.595S180.884,218.603,182.08,219.293z"/>
			</g>
			<g id="XMLID_1270_">
				<path id="XMLID_1274_" style="fill:#455A64;" d="M178.018,235.709l48.478,27.988c1.196,0.69,2.165,2.369,2.165,3.75
					l-0.001,18.453c0,1.381-0.969,1.94-2.165,1.25l-48.476-27.988c-1.196-0.69-2.165-2.369-2.165-3.75l-0.001-18.453
					C175.853,235.579,176.822,235.019,178.018,235.709z"/>
				<path id="XMLID_1273_" style="fill:#27DEBF;" d="M179.915,243.84c0,1.295,0.969,2.905,2.165,3.595l40.353,23.298
					c1.196,0.69,2.165,0.2,2.165-1.095c0-1.295-0.969-2.905-2.165-3.595l-40.353-23.298
					C180.884,242.055,179.915,242.545,179.915,243.84z"/>
				<path id="XMLID_1272_" style="fill:#263238;" d="M179.915,253.221c0,1.295,0.969,2.905,2.165,3.595l40.353,23.297
					c1.196,0.69,2.165,0.2,2.165-1.095c0-1.295-0.969-2.905-2.165-3.595l-40.353-23.298
					C180.884,251.436,179.915,251.926,179.915,253.221z"/>
				<path id="XMLID_1271_" style="fill:#27DEBF;" d="M182.08,252.126l30.332,17.512l0,4.69l-30.332-17.511
					c-1.196-0.69-2.165-2.3-2.165-3.595S180.884,251.436,182.08,252.126z"/>
			</g>
			<g id="XMLID_1255_">
				<path id="XMLID_1269_" style="fill:#37474F;" d="M246.939,134.797c2.243-1.3,4.062-0.116,4.062,2.645l0.001,107.271
					c0,2.761-1.819,6.054-4.062,7.355c-2.243,1.301-4.062,0.116-4.062-2.645l-0.001-107.271
					C242.876,139.391,244.695,136.098,246.939,134.797z"/>
				<path id="XMLID_1268_" style="fill:#263238;" d="M246.939,249.694c1.122-0.648,2.031-2.292,2.031-3.673l-0.001-107.571
					c0-1.381-0.909-1.975-2.031-1.327c-1.122,0.647-2.031,2.292-2.031,3.673l0.001,107.571
					C244.908,249.747,245.818,250.342,246.939,249.694z"/>
				<path id="XMLID_1267_" style="fill:#27DEBF;" d="M246.939,249.694c1.122-0.648,2.031-2.292,2.031-3.673l-0.001-51.43
					l-4.062,2.345l0.001,51.431C244.908,249.747,245.818,250.342,246.939,249.694z"/>
				<path id="XMLID_1266_" style="fill:#37474F;" d="M259.125,127.762c2.243-1.3,4.062-0.116,4.062,2.645l0,107.271
					c0,2.762-1.819,6.054-4.062,7.355c-2.243,1.301-4.062,0.116-4.062-2.645l-0.001-107.271
					C255.063,132.355,256.881,129.062,259.125,127.762z"/>
				<path id="XMLID_1265_" style="fill:#27DEBF;" d="M259.125,242.659c1.122-0.648,2.031-2.292,2.031-3.673l-0.001-107.571
					c0-1.381-0.909-1.975-2.031-1.327c-1.122,0.648-2.031,2.292-2.031,3.673l0.001,107.571
					C257.094,242.712,258.004,243.306,259.125,242.659z"/>
				<path id="XMLID_1264_" style="fill:#37474F;" d="M271.311,120.727c2.243-1.3,4.062-0.116,4.062,2.645l0,107.271
					c0,2.761-1.819,6.054-4.062,7.355c-2.243,1.301-4.062,0.116-4.062-2.645l-0.001-107.271
					C267.249,125.32,269.068,122.027,271.311,120.727z"/>
				<path id="XMLID_1263_" style="fill:#263238;" d="M271.312,235.623c1.122-0.648,2.031-2.292,2.031-3.673l-0.001-107.571
					c0-1.381-0.909-1.975-2.031-1.327c-1.122,0.647-2.031,2.292-2.031,3.673l0.001,107.571
					C269.281,235.677,270.19,236.271,271.312,235.623z"/>
				<path id="XMLID_1262_" style="fill:#27DEBF;" d="M271.312,235.623c1.122-0.648,2.031-2.292,2.031-3.673l-0.001-83.092
					l-4.062,2.345l0.001,83.092C269.281,235.677,270.19,236.271,271.312,235.623z"/>
				<path id="XMLID_1261_" style="fill:#37474F;" d="M283.497,113.691c2.243-1.3,4.062-0.116,4.062,2.645l0.001,107.271
					c0,2.762-1.819,6.054-4.062,7.355c-2.243,1.301-4.062,0.116-4.062-2.645l-0.001-107.271
					C279.435,118.285,281.254,114.992,283.497,113.691z"/>
				<path id="XMLID_1260_" style="fill:#263238;" d="M283.498,228.588c1.122-0.648,2.031-2.292,2.031-3.673l-0.001-107.571
					c0-1.381-0.909-1.975-2.031-1.327c-1.122,0.648-2.031,2.292-2.031,3.673l0.001,107.571
					C281.467,228.641,282.376,229.236,283.498,228.588z"/>
				<path id="XMLID_1259_" style="fill:#27DEBF;" d="M283.498,228.588c1.122-0.648,2.031-2.292,2.031-3.673l0-18.156l-4.062,2.345
					l0.001,18.156C281.467,228.641,282.376,229.236,283.498,228.588z"/>
				<path id="XMLID_1258_" style="fill:#37474F;" d="M295.684,106.656c2.243-1.3,4.062-0.116,4.062,2.645l0,107.271
					c0,2.761-1.819,6.054-4.062,7.355c-2.243,1.301-4.062,0.116-4.062-2.645l-0.001-107.271
					C291.621,111.249,293.44,107.956,295.684,106.656z"/>
				<path id="XMLID_1257_" style="fill:#263238;" d="M295.684,221.553c1.122-0.648,2.031-2.292,2.031-3.673l-0.001-107.571
					c0-1.381-0.909-1.975-2.031-1.327c-1.122,0.647-2.031,2.292-2.031,3.673l0.001,107.571
					C293.653,221.606,294.563,222.2,295.684,221.553z"/>
				<path id="XMLID_1256_" style="fill:#27DEBF;" d="M295.684,221.553c1.122-0.648,2.031-2.292,2.031-3.673l-0.001-56.122
					l-4.062,2.345l0.001,56.122C293.653,221.606,294.563,222.2,295.684,221.553z"/>
			</g>
			<g id="XMLID_1247_">
				<path id="XMLID_1254_" style="fill:#37474F;" d="M244.609,265.12l53.405-30.833c0.957-0.552,1.732-0.105,1.732,1v19.452
					c0,1.105-0.775,2.448-1.732,3l-53.405,30.833c-0.957,0.552-1.732,0.105-1.732-1V268.12
					C242.877,267.016,243.653,265.672,244.609,265.12z"/>
				<g id="XMLID_1251_">
					<path id="XMLID_1253_" style="fill:#263238;" d="M246.805,270.888c0,1.295,0.97,1.785,2.166,1.095l44.682-25.806
						c1.196-0.69,2.165-2.3,2.165-3.595c0-1.295-0.969-1.785-2.165-1.095l-44.684,25.806
						C247.773,267.983,246.804,269.593,246.805,270.888z"/>
					<path id="XMLID_1252_" style="fill:#27DEBF;" d="M246.805,270.888c0,1.295,0.97,1.785,2.165,1.095l32.496-18.771l0.001-4.69
						l-32.498,18.771C247.773,267.983,246.804,269.593,246.805,270.888z"/>
				</g>
				<g id="XMLID_1248_">
					<path id="XMLID_1250_" style="fill:#263238;" d="M246.805,280.269c0,1.295,0.97,1.785,2.166,1.095l44.682-25.806
						c1.196-0.69,2.165-2.3,2.165-3.595c0-1.295-0.969-1.785-2.165-1.095l-44.684,25.806
						C247.773,277.365,246.804,278.974,246.805,280.269z"/>
					<path id="XMLID_1249_" style="fill:#27DEBF;" d="M246.805,280.269c0,1.295,0.97,1.785,2.166,1.095l12.186-7.036l0.001-4.69
						l-12.188,7.036C247.773,277.365,246.804,278.974,246.805,280.269z"/>
				</g>
			</g>
			<path id="XMLID_1246_" style="fill:#455A64;" d="M303.673,83.116l-64.725-37.369c-1.196-0.69-3.134-0.69-4.33,0l-64.725,37.369
				c-1.196,0.69-1.196,1.81,0,2.5l64.726,37.369c1.196,0.69,3.134,0.69,4.33,0l64.723-37.369
				C304.869,84.925,304.869,83.806,303.673,83.116z"/>
		</g>
		<g id="XMLID_1241_">
			<path id="XMLID_1244_" style="fill:#263238;" d="M235.484,114.103l-50.209-28.988c-0.717-0.414-1.299-1.422-1.299-2.25v-1.691
				c0-0.828,0.582-1.836,1.299-2.25l50.208-28.988c0.717-0.414,1.881-0.414,2.598,0l50.209,28.988
				c0.717,0.414,1.299,1.422,1.299,2.25v1.69c0,0.828-0.582,1.836-1.299,2.25l-50.208,28.988
				C237.365,114.518,236.202,114.518,235.484,114.103z"/>
			<path id="XMLID_1243_" style="fill:#455A64;" d="M185.276,80.425l50.209,28.988c0.717,0.414,1.881,0.414,2.598,0l50.208-28.988
				c0.717-0.414,0.717-1.086,0-1.5l-50.209-27.987c-0.717-0.414-1.881-0.414-2.598,0l-50.208,27.987
				C184.558,79.339,184.558,80.011,185.276,80.425z"/>
			<path id="XMLID_1242_" style="fill:#37474F;" d="M236.786,109.722v4.69c-0.47,0-0.94-0.1-1.3-0.31l-50.21-28.99
				c-0.72-0.41-1.3-1.42-1.3-2.25v-1.69c0-0.73,0.45-1.6,1.06-2.08c-0.47,0.41-0.39,0.97,0.24,1.33l50.21,28.99
				C235.845,109.622,236.316,109.722,236.786,109.722z"/>
		</g>
		<g id="XMLID_1102_">
			<path id="XMLID_1240_" style="fill:#263238;" d="M235.484,100.032l-33.961-19.607c-0.717-0.414-1.299-1.421-1.299-2.25v-1.69
				c0-0.828,0.582-1.836,1.299-2.25l21.774-12.571c0.717-0.414,1.699-1.289,2.193-1.954l10.399-14.008
				c0.494-0.665,1.476-0.869,2.193-0.455l33.961,19.606c0.717,0.414,1.299,1.422,1.299,2.25l-0.001,11.072
				c0,0.828-0.582,1.836-1.299,2.25l-33.96,19.607C237.365,100.446,236.202,100.446,235.484,100.032z"/>
			<path id="XMLID_1239_" style="fill:#455A64;" d="M238.082,95.341l21.774-12.571c0.345-0.199,0.752-0.506,1.136-0.844
				c0.414-0.364,0.801-0.766,1.057-1.111l10.399-14.008c0.494-0.665,0.313-1.54-0.405-1.954l-33.961-19.606
				c-0.717-0.414-1.699-0.211-2.193,0.455l-10.399,14.008c-0.494,0.665-1.296,1.619-2.013,2.033l-21.954,12.492
				c-0.717,0.414-0.717,1.086,0,1.5l33.96,19.607C236.202,95.756,237.365,95.756,238.082,95.341z"/>
			<path id="XMLID_1238_" style="fill:#37474F;" d="M272.044,64.853l-33.96-19.606c-0.717-0.414-1.699-0.211-2.193,0.454
				l-10.399,14.008c-0.257,0.346-0.647,0.743-1.063,1.107c0,0,36.551,21.117,36.562,21.108c0.414-0.364,0.803-0.762,1.059-1.108
				l10.399-14.008C272.943,66.142,272.761,65.267,272.044,64.853z"/>
			<g id="XMLID_1152_">
				<path id="XMLID_1237_" style="fill:#27DEBF;" d="M209.764,74.579c0.841-0.486,2.205-0.486,3.047,0
					c0.841,0.486,0.841,1.273,0,1.759c-0.841,0.486-2.205,0.486-3.047,0C208.923,75.852,208.923,75.064,209.764,74.579z"/>
				<path id="XMLID_1236_" style="fill:#27DEBF;" d="M215.857,78.096c0.841-0.486,2.205-0.486,3.047,0
					c0.841,0.486,0.841,1.273,0,1.759c-0.841,0.486-2.205,0.486-3.047,0C215.015,79.369,215.015,78.582,215.857,78.096z"/>
				<path id="XMLID_1235_" style="fill:#263238;" d="M221.949,81.614c0.841-0.486,2.205-0.486,3.047,0
					c0.841,0.486,0.841,1.273,0,1.759c-0.841,0.486-2.205,0.486-3.047,0C221.108,82.887,221.108,82.1,221.949,81.614z"/>
				<path id="XMLID_1234_" style="fill:#263238;" d="M228.042,85.132c0.841-0.486,2.205-0.486,3.047,0
					c0.841,0.486,0.841,1.273,0,1.759c-0.841,0.486-2.205,0.486-3.047,0C227.201,86.405,227.201,85.617,228.042,85.132z"/>
				<ellipse id="XMLID_1233_" style="fill:#27DEBF;" cx="215.857" cy="72.82" rx="2.154" ry="1.244"/>
				<path id="XMLID_1232_" style="fill:#263238;" d="M220.426,75.458c0.841-0.486,2.205-0.486,3.047,0
					c0.841,0.486,0.841,1.273,0,1.759c-0.841,0.486-2.205,0.486-3.047,0C219.585,76.731,219.585,75.944,220.426,75.458z"/>
				<ellipse id="XMLID_1231_" style="fill:#27DEBF;" cx="228.042" cy="79.855" rx="2.154" ry="1.244"/>
				<path id="XMLID_1230_" style="fill:#263238;" d="M232.612,82.493c0.841-0.486,2.205-0.486,3.047,0
					c0.841,0.486,0.841,1.273,0,1.759c-0.841,0.486-2.205,0.486-3.047,0C231.771,83.767,231.771,82.979,232.612,82.493z"/>
				<path id="XMLID_1229_" style="fill:#263238;" d="M218.903,69.302c0.841-0.486,2.205-0.486,3.047,0
					c0.841,0.486,0.841,1.273,0,1.759c-0.841,0.486-2.205,0.486-3.047,0C218.061,70.575,218.061,69.787,218.903,69.302z"/>
				<path id="XMLID_1228_" style="fill:#27DEBF;" d="M224.996,72.82c0.841-0.486,2.205-0.486,3.047,0
					c0.841,0.486,0.841,1.273,0,1.759c-0.841,0.486-2.205,0.486-3.047,0C224.154,74.093,224.154,73.305,224.996,72.82z"/>
				<path id="XMLID_1227_" style="fill:#263238;" d="M231.089,76.337c0.841-0.486,2.205-0.486,3.047,0
					c0.841,0.486,0.841,1.273,0,1.759c-0.841,0.486-2.205,0.486-3.047,0C230.247,77.61,230.247,76.823,231.089,76.337z"/>
				<path id="XMLID_1226_" style="fill:#27DEBF;" d="M234.17,88.579c0.841-0.486,2.205-0.486,3.046,0
					c0.841,0.486,0.841,1.273,0,1.759c-0.841,0.486-2.205,0.486-3.046,0C233.328,89.852,233.328,89.065,234.17,88.579z"/>
				<path id="XMLID_1225_" style="fill:#263238;" d="M238.739,85.941c0.841-0.486,2.205-0.486,3.046,0
					c0.841,0.486,0.841,1.273,0,1.759c-0.841,0.486-2.205,0.486-3.046,0C237.898,87.214,237.898,86.426,238.739,85.941z"/>
				<path id="XMLID_1159_" style="fill:#263238;" d="M237.181,79.858c0.841-0.486,2.205-0.486,3.047,0
					c0.841,0.486,0.841,1.273,0,1.759c-0.841,0.486-2.205,0.486-3.047,0C236.34,81.131,236.34,80.343,237.181,79.858z"/>
				<path id="XMLID_1158_" style="fill:#27DEBF;" d="M223.472,66.666c0.841-0.486,2.205-0.486,3.047,0
					c0.841,0.486,0.841,1.273,0,1.759c-0.841,0.486-2.205,0.486-3.047,0C222.631,67.939,222.631,67.152,223.472,66.666z"/>
				<ellipse id="XMLID_1157_" style="fill:#263238;" cx="231.088" cy="71.063" rx="2.154" ry="1.244"/>
				<path id="XMLID_1156_" style="fill:#27DEBF;" d="M235.658,73.702c0.841-0.486,2.205-0.486,3.047,0
					c0.841,0.486,0.841,1.273,0,1.759c-0.841,0.486-2.205,0.486-3.047,0C234.817,74.975,234.817,74.187,235.658,73.702z"/>
				<ellipse id="XMLID_1155_" style="fill:#263238;" cx="243.274" cy="78.099" rx="2.154" ry="1.244"/>
				<path id="XMLID_1154_" style="fill:#27DEBF;" d="M243.309,83.305c0.841-0.486,2.205-0.486,3.047,0
					c0.841,0.486,0.841,1.273,0,1.759c-0.841,0.486-2.205,0.486-3.047,0C242.467,84.578,242.467,83.791,243.309,83.305z"/>
				<path id="XMLID_1153_" style="fill:#263238;" d="M247.878,80.667c0.841-0.486,2.205-0.486,3.047,0
					c0.841,0.486,0.841,1.273,0,1.759c-0.841,0.486-2.205,0.486-3.047,0C247.037,81.94,247.037,81.152,247.878,80.667z"/>
			</g>
			<path id="XMLID_1151_" style="fill:#37474F;" d="M236.856,95.652v4.68c-0.49,0.01-0.99-0.08-1.37-0.3l-33.96-19.61
				c-0.72-0.41-1.3-1.42-1.3-2.25v-1.69c0-0.73,0.45-1.6,1.06-2.08c-0.47,0.41-0.39,0.97,0.24,1.33l33.96,19.61
				C235.865,95.562,236.365,95.662,236.856,95.652z"/>
			<g id="XMLID_1103_">
				<path id="XMLID_1150_" style="fill:#263238;" d="M229.982,59.123l0.03-0.041c0.328-0.444,0.982-0.58,1.46-0.304l29.553,17.063
					c0.478,0.276,0.598,0.859,0.268,1.302l-0.031,0.041c-0.33,0.443-0.985,0.578-1.464,0.302l-29.546-17.059
					C229.776,60.152,229.654,59.568,229.982,59.123z"/>
				<path id="XMLID_1149_" style="fill:#27DEBF;" d="M229.982,59.123l0.03-0.041c0.328-0.444,0.982-0.58,1.46-0.304l21.972,12.685
					l-1.226,1.645l-21.964-12.681C229.776,60.152,229.654,59.568,229.982,59.123z"/>
				<path id="XMLID_1148_" style="fill:#263238;" d="M232.425,55.844l0.03-0.041c0.328-0.444,0.982-0.58,1.46-0.304l29.553,17.063
					c0.478,0.276,0.598,0.859,0.268,1.302l-0.031,0.041c-0.33,0.443-0.986,0.578-1.464,0.302l-29.546-17.059
					C232.219,56.873,232.097,56.289,232.425,55.844z"/>
				<path id="XMLID_1147_" style="fill:#27DEBF;" d="M232.425,55.844l0.03-0.041c0.328-0.444,0.982-0.58,1.46-0.304l7.346,4.24
					l-1.226,1.645l-7.338-4.235C232.219,56.872,232.097,56.289,232.425,55.844z"/>
				<path id="XMLID_1146_" style="fill:#263238;" d="M234.869,52.565l0.03-0.041c0.328-0.444,0.982-0.58,1.46-0.304l29.553,17.063
					c0.478,0.276,0.599,0.859,0.268,1.302l-0.031,0.041c-0.33,0.443-0.985,0.578-1.464,0.302L235.14,53.87
					C234.662,53.593,234.54,53.009,234.869,52.565z"/>
				<path id="XMLID_1145_" style="fill:#27DEBF;" d="M234.869,52.565l0.03-0.041c0.328-0.444,0.982-0.581,1.461-0.305l15.393,8.86
					l-1.226,1.645l-15.385-8.855C234.662,53.593,234.54,53.009,234.869,52.565z"/>
				<path id="XMLID_1140_" style="fill:#263238;" d="M237.312,49.286l0.03-0.041c0.328-0.444,0.982-0.58,1.46-0.304l29.553,17.063
					c0.478,0.276,0.598,0.859,0.268,1.302l-0.031,0.041c-0.33,0.443-0.985,0.578-1.464,0.302l-29.546-17.059
					C237.105,50.314,236.984,49.73,237.312,49.286z"/>
				<path id="XMLID_1127_" style="fill:#27DEBF;" d="M237.312,49.286l0.03-0.041c0.328-0.444,0.982-0.58,1.46-0.304l26.827,15.488
					l-1.226,1.645l-26.819-15.483C237.105,50.314,236.984,49.73,237.312,49.286z"/>
			</g>
		</g>
	</g>
	<g id="Server">
		<g id="XMLID_1084_">
			<path id="XMLID_10_" style="fill:none;stroke:#27DEBF;stroke-miterlimit:10;" d="M183.977,323.567l10.021-5.785
				c1.191-0.687,3.14-0.687,4.33,0l59.524,34.366c1.469,0.848,3.304-0.212,3.304-1.908v-49.232"/>
			<path id="XMLID_9_" style="fill:none;stroke:#27DEBF;stroke-miterlimit:10;" d="M179.915,321.222l14.084-8.131
				c1.191-0.688,3.139-0.688,4.33,0l63.586,36.711c1.469,0.848,3.304-0.212,3.304-1.908v-46.887"/>
			<path id="XMLID_8_" style="fill:none;stroke:#27DEBF;stroke-miterlimit:10;" d="M175.854,318.869l18.144-10.469
				c1.191-0.687,3.14-0.687,4.33,0.001l67.648,39.056c1.469,0.848,3.304-0.212,3.304-1.908v-44.262"/>
			<path id="XMLID_7_" style="fill:none;stroke:#27DEBF;stroke-miterlimit:10;" d="M171.777,316.532l22.221-12.822
				c1.191-0.687,3.14-0.687,4.33,0.001l71.71,41.402c1.469,0.848,3.304-0.212,3.304-1.908v-41.917"/>
		</g>
		<g id="XMLID_1101_">
			<path id="XMLID_1098_" style="fill:#37474F;" d="M116.819,113.747l-64.725,37.369c-1.196,0.69-2.165,2.369-2.165,3.75v177.927
				c0,1.381,0.969,3.06,2.165,3.75l64.726,37.369c1.196,0.69,3.134,0.69,4.33,0l64.723-37.369c1.196-0.69,2.165-2.369,2.165-3.75
				V154.866c0-1.381-0.969-3.06-2.165-3.75l-64.724-37.369C119.954,113.057,118.015,113.057,116.819,113.747z"/>
			<path id="XMLID_1106_" style="fill:#263238;" d="M188.036,154.862v177.93c0,1.38-0.97,3.06-2.16,3.75l-64.73,37.37
				c-0.59,0.35-1.38,0.52-2.16,0.52v-182.93c0.78,0,1.56-0.18,2.16-0.52l64.73-37.37l0.59-0.49l0.77-0.64
				C187.726,153.222,188.036,154.082,188.036,154.862z"/>
			<g id="XMLID_1126_">
				<path id="XMLID_1122_" style="fill:#455A64;" d="M60.218,172.377l48.477,27.988c1.196,0.69,2.165,2.369,2.165,3.75
					l-0.001,18.453c0,1.381-0.969,1.94-2.165,1.25L60.219,195.83c-1.196-0.69-2.165-2.369-2.165-3.75l0-18.453
					C58.053,172.247,59.022,171.687,60.218,172.377z"/>
				<path id="XMLID_1123_" style="fill:#27DEBF;" d="M62.115,180.508c0,1.295,0.969,2.905,2.165,3.595l40.353,23.297
					c1.196,0.69,2.165,0.2,2.165-1.095c0-1.295-0.969-2.905-2.165-3.595L64.28,179.413
					C63.084,178.723,62.115,179.213,62.115,180.508z"/>
				<path id="XMLID_1125_" style="fill:#263238;" d="M62.115,189.889c0,1.295,0.969,2.905,2.165,3.595l40.353,23.298
					c1.196,0.69,2.165,0.2,2.165-1.095c0-1.295-0.969-2.905-2.165-3.595L64.28,188.794
					C63.084,188.104,62.115,188.594,62.115,189.889z"/>
				<path id="XMLID_1124_" style="fill:#27DEBF;" d="M64.28,188.794l22.208,12.822l0,4.69L64.28,193.485
					c-1.196-0.69-2.165-2.3-2.165-3.595C62.115,188.594,63.084,188.104,64.28,188.794z"/>
			</g>
			<g id="XMLID_1128_">
				<path id="XMLID_1132_" style="fill:#455A64;" d="M60.218,205.21l48.477,27.988c1.196,0.69,2.165,2.369,2.165,3.75l-0.001,18.453
					c0,1.381-0.969,1.94-2.165,1.25l-48.476-27.988c-1.196-0.69-2.165-2.369-2.165-3.75l0-18.453
					C58.053,205.08,59.022,204.52,60.218,205.21z"/>
				<path id="XMLID_1131_" style="fill:#27DEBF;" d="M62.115,213.342c0,1.295,0.969,2.905,2.165,3.595l40.353,23.298
					c1.196,0.69,2.165,0.2,2.165-1.095c0-1.295-0.969-2.905-2.165-3.595L64.28,212.246
					C63.084,211.556,62.115,212.046,62.115,213.342z"/>
				<path id="XMLID_1130_" style="fill:#263238;" d="M62.115,222.723c0,1.295,0.969,2.905,2.165,3.595l40.353,23.298
					c1.196,0.69,2.165,0.2,2.165-1.095c0-1.295-0.969-2.905-2.165-3.595L64.28,221.627
					C63.084,220.937,62.115,221.427,62.115,222.723z"/>
				<path id="XMLID_1129_" style="fill:#27DEBF;" d="M64.28,221.627l34.394,19.857l0,4.69L64.28,226.318
					c-1.196-0.69-2.165-2.3-2.165-3.595C62.115,221.427,63.084,220.937,64.28,221.627z"/>
			</g>
			<g id="XMLID_1133_">
				<path id="XMLID_1214_" style="fill:#455A64;" d="M60.218,238.044l48.477,27.988c1.196,0.69,2.165,2.369,2.165,3.75
					l-0.001,18.453c0,1.381-0.969,1.94-2.165,1.25l-48.476-27.988c-1.196-0.69-2.165-2.369-2.165-3.75l0-18.453
					C58.053,237.913,59.022,237.353,60.218,238.044z"/>
				<path id="XMLID_1213_" style="fill:#27DEBF;" d="M62.115,246.175c0,1.295,0.969,2.905,2.165,3.595l40.353,23.297
					c1.196,0.69,2.165,0.2,2.165-1.095c0-1.295-0.969-2.905-2.165-3.595L64.28,245.079
					C63.084,244.389,62.115,244.879,62.115,246.175z"/>
				<path id="XMLID_1212_" style="fill:#263238;" d="M62.115,255.556c0,1.295,0.969,2.905,2.165,3.595l40.353,23.297
					c1.196,0.69,2.165,0.2,2.165-1.095c0-1.295-0.969-2.905-2.165-3.595L64.28,254.46C63.084,253.77,62.115,254.26,62.115,255.556z"
					/>
				<path id="XMLID_1134_" style="fill:#27DEBF;" d="M64.28,254.46l14.083,8.131l0,4.69l-14.083-8.13
					c-1.196-0.69-2.165-2.3-2.165-3.595C62.115,254.26,63.084,253.77,64.28,254.46z"/>
			</g>
			<g id="XMLID_1215_">
				<path id="XMLID_1219_" style="fill:#455A64;" d="M60.218,270.877l48.477,27.988c1.196,0.69,2.165,2.369,2.165,3.75
					l-0.001,18.453c0,1.381-0.969,1.94-2.165,1.25l-48.476-27.988c-1.196-0.69-2.165-2.369-2.165-3.75l0-18.453
					C58.053,270.746,59.022,270.186,60.218,270.877z"/>
				<path id="XMLID_1218_" style="fill:#27DEBF;" d="M62.115,279.008c0,1.295,0.969,2.905,2.165,3.595l40.353,23.297
					c1.196,0.69,2.165,0.2,2.165-1.095c0-1.295-0.969-2.905-2.165-3.595L64.28,277.913
					C63.084,277.222,62.115,277.712,62.115,279.008z"/>
				<path id="XMLID_1217_" style="fill:#263238;" d="M62.115,288.389c0,1.295,0.969,2.905,2.165,3.595l40.353,23.297
					c1.196,0.69,2.165,0.2,2.165-1.095c0-1.295-0.969-2.905-2.165-3.595L64.28,287.294
					C63.084,286.603,62.115,287.094,62.115,288.389z"/>
				<path id="XMLID_1216_" style="fill:#27DEBF;" d="M64.28,287.294l22.208,12.822l0,4.69L64.28,291.984
					c-1.196-0.69-2.165-2.3-2.165-3.595C62.115,287.094,63.084,286.603,64.28,287.294z"/>
			</g>
			<g id="XMLID_1220_">
				<path id="XMLID_1224_" style="fill:#455A64;" d="M60.218,303.71l48.477,27.988c1.196,0.69,2.165,2.369,2.165,3.75L110.86,353.9
					c0,1.381-0.969,1.94-2.165,1.25l-48.476-27.988c-1.196-0.69-2.165-2.369-2.165-3.75l0-18.453
					C58.053,303.579,59.022,303.019,60.218,303.71z"/>
				<path id="XMLID_1223_" style="fill:#27DEBF;" d="M62.115,311.841c0,1.295,0.969,2.905,2.165,3.595l40.353,23.297
					c1.196,0.69,2.165,0.2,2.165-1.095c0-1.295-0.969-2.905-2.165-3.595L64.28,310.746
					C63.084,310.055,62.115,310.546,62.115,311.841z"/>
				<path id="XMLID_1222_" style="fill:#263238;" d="M62.115,321.222c0,1.295,0.969,2.905,2.165,3.595l40.353,23.297
					c1.196,0.69,2.165,0.2,2.165-1.095c0-1.295-0.969-2.905-2.165-3.595L64.28,320.127
					C63.084,319.436,62.115,319.927,62.115,321.222z"/>
				<path id="XMLID_1221_" style="fill:#27DEBF;" d="M64.28,320.127l30.332,17.512l0,4.69L64.28,324.817
					c-1.196-0.69-2.165-2.3-2.165-3.595C62.115,319.927,63.084,319.436,64.28,320.127z"/>
			</g>
			<g id="XMLID_43_">
				<path id="XMLID_40_" style="fill:#37474F;" d="M129.139,202.798c2.243-1.301,4.062-0.116,4.062,2.645l0,107.271
					c0,2.761-1.819,6.054-4.062,7.355c-2.243,1.301-4.062,0.116-4.062-2.645l-0.001-107.271
					C125.077,207.391,126.895,204.098,129.139,202.798z"/>
				<path id="XMLID_42_" style="fill:#263238;" d="M129.139,317.694c1.122-0.648,2.031-2.292,2.031-3.673l0-107.571
					c0-1.381-0.909-1.975-2.031-1.327c-1.122,0.648-2.031,2.292-2.031,3.673l0.001,107.571
					C127.108,317.748,128.018,318.342,129.139,317.694z"/>
				<path id="XMLID_1091_" style="fill:#27DEBF;" d="M129.139,317.694c1.122-0.648,2.031-2.292,2.031-3.673l-0.001-51.43
					l-4.062,2.345l0.001,51.431C127.108,317.748,128.018,318.342,129.139,317.694z"/>
				<path id="XMLID_45_" style="fill:#37474F;" d="M141.325,195.762c2.243-1.301,4.062-0.116,4.062,2.645l0,107.271
					c0,2.761-1.819,6.054-4.062,7.355c-2.243,1.301-4.062,0.116-4.062-2.645l-0.001-107.271
					C137.263,200.356,139.082,197.063,141.325,195.762z"/>
				<path id="XMLID_44_" style="fill:#27DEBF;" d="M141.326,310.659c1.122-0.648,2.031-2.292,2.031-3.673l-0.001-107.571
					c0-1.381-0.909-1.975-2.031-1.327s-2.031,2.292-2.031,3.673l0.001,107.571C139.295,310.712,140.204,311.307,141.326,310.659z"/>
				<path id="XMLID_47_" style="fill:#37474F;" d="M153.511,188.727c2.243-1.3,4.062-0.116,4.062,2.645l0,107.271
					c0,2.761-1.819,6.054-4.062,7.355c-2.243,1.301-4.062,0.116-4.062-2.645l-0.001-107.271
					C149.449,193.32,151.268,190.027,153.511,188.727z"/>
				<path id="XMLID_46_" style="fill:#263238;" d="M153.512,303.624c1.122-0.648,2.031-2.292,2.031-3.673l-0.001-107.571
					c0-1.381-0.909-1.975-2.031-1.327c-1.122,0.648-2.031,2.292-2.031,3.673l0.001,107.571
					C151.481,303.677,152.39,304.271,153.512,303.624z"/>
				<path id="XMLID_1092_" style="fill:#27DEBF;" d="M153.512,303.624c1.122-0.648,2.031-2.292,2.031-3.673l-0.001-83.092
					l-4.062,2.345l0.001,83.092C151.481,303.677,152.39,304.271,153.512,303.624z"/>
				<path id="XMLID_654_" style="fill:#37474F;" d="M165.698,181.692c2.243-1.301,4.062-0.116,4.062,2.645l0,107.271
					c0,2.761-1.819,6.054-4.062,7.355c-2.243,1.301-4.062,0.116-4.062-2.645l-0.001-107.271
					C161.635,186.285,163.454,182.992,165.698,181.692z"/>
				<path id="XMLID_48_" style="fill:#263238;" d="M165.698,296.588c1.122-0.648,2.031-2.292,2.031-3.673l0-107.571
					c0-1.381-0.909-1.975-2.031-1.327s-2.031,2.292-2.031,3.673l0.001,107.571C163.667,296.642,164.577,297.236,165.698,296.588z"/>
				<path id="XMLID_1093_" style="fill:#27DEBF;" d="M165.698,296.588c1.122-0.648,2.031-2.292,2.031-3.673l-0.001-18.156
					l-4.062,2.345l0.001,18.156C163.667,296.642,164.577,297.236,165.698,296.588z"/>
				<path id="XMLID_656_" style="fill:#37474F;" d="M177.884,174.656c2.243-1.301,4.062-0.116,4.062,2.645l0,107.271
					c0,2.761-1.819,6.054-4.062,7.355c-2.243,1.301-4.062,0.116-4.062-2.645l-0.001-107.271
					C173.822,179.25,175.641,175.957,177.884,174.656z"/>
				<path id="XMLID_655_" style="fill:#263238;" d="M177.885,289.553c1.122-0.648,2.031-2.292,2.031-3.673l-0.001-107.571
					c0-1.381-0.909-1.975-2.031-1.327c-1.122,0.648-2.031,2.292-2.031,3.673l0.001,107.571
					C175.854,289.606,176.763,290.201,177.885,289.553z"/>
				<path id="XMLID_1094_" style="fill:#27DEBF;" d="M177.885,289.553c1.122-0.648,2.031-2.292,2.031-3.673l-0.001-56.122
					l-4.062,2.345l0.001,56.122C175.854,289.606,176.763,290.201,177.885,289.553z"/>
			</g>
			<g id="XMLID_1100_">
				<path id="XMLID_1086_" style="fill:#37474F;" d="M126.81,333.121l53.405-30.833c0.957-0.552,1.732-0.104,1.732,1v19.452
					c0,1.105-0.775,2.448-1.732,3l-53.405,30.833c-0.956,0.552-1.732,0.104-1.732-1v-19.452
					C125.078,335.016,125.853,333.673,126.81,333.121z"/>
				<g id="XMLID_39_">
					<path id="XMLID_1088_" style="fill:#263238;" d="M129.005,338.888c0,1.295,0.97,1.785,2.166,1.095l44.682-25.806
						c1.196-0.69,2.165-2.3,2.165-3.595s-0.969-1.785-2.165-1.095l-44.684,25.806C129.973,335.984,129.004,337.593,129.005,338.888z
						"/>
					<path id="XMLID_1087_" style="fill:#27DEBF;" d="M129.005,338.888c0,1.295,0.97,1.785,2.165,1.095l32.496-18.771l0.001-4.69
						l-32.498,18.771C129.973,335.984,129.004,337.593,129.005,338.888z"/>
				</g>
				<g id="XMLID_41_">
					<path id="XMLID_1090_" style="fill:#263238;" d="M129.005,348.27c0,1.295,0.97,1.785,2.166,1.095l44.682-25.806
						c1.196-0.69,2.165-2.3,2.165-3.595s-0.969-1.785-2.165-1.095l-44.684,25.806C129.973,345.365,129.004,346.974,129.005,348.27z"
						/>
					<path id="XMLID_1089_" style="fill:#27DEBF;" d="M129.005,348.27c0,1.295,0.97,1.785,2.166,1.095l12.186-7.036l0.001-4.69
						l-12.188,7.036C129.973,345.365,129.004,346.974,129.005,348.27z"/>
				</g>
			</g>
			<path id="XMLID_1095_" style="fill:#455A64;" d="M185.873,151.116l-64.725-37.369c-1.196-0.69-3.134-0.69-4.33,0l-64.725,37.369
				c-1.196,0.69-1.196,1.81,0,2.5l64.726,37.369c1.196,0.69,3.134,0.69,4.33,0l64.723-37.369
				C187.069,152.926,187.069,151.806,185.873,151.116z"/>
		</g>
		<g id="XMLID_1074_">
			<path id="XMLID_1096_" style="fill:#263238;" d="M117.685,182.104l-50.209-28.988c-0.717-0.414-1.299-1.422-1.299-2.25v-1.691
				c0-0.828,0.581-1.836,1.299-2.25l50.208-28.988c0.717-0.414,1.881-0.414,2.598,0l50.209,28.988
				c0.717,0.414,1.299,1.422,1.299,2.25v1.69c0,0.828-0.582,1.836-1.299,2.25l-50.208,28.988
				C119.565,182.518,118.402,182.518,117.685,182.104z"/>
			<path id="XMLID_1097_" style="fill:#455A64;" d="M67.476,148.425l50.209,28.988c0.717,0.414,1.881,0.414,2.598,0l50.208-28.988
				c0.717-0.414,0.717-1.086,0-1.5l-50.209-27.987c-0.717-0.414-1.881-0.414-2.598,0l-50.208,27.987
				C66.758,147.339,66.758,148.011,67.476,148.425z"/>
			<path id="XMLID_1136_" style="fill:#37474F;" d="M118.986,177.722v4.69c-0.47,0-0.94-0.1-1.3-0.31l-50.21-28.99
				c-0.72-0.41-1.3-1.42-1.3-2.25v-1.69c0-0.73,0.45-1.6,1.06-2.08c-0.47,0.41-0.39,0.97,0.24,1.33l50.21,28.99
				C118.046,177.622,118.516,177.722,118.986,177.722z"/>
		</g>
		<g id="XMLID_1073_">
			<path id="XMLID_657_" style="fill:#263238;" d="M117.685,168.032l-33.961-19.607c-0.717-0.414-1.299-1.422-1.299-2.25v-1.69
				c0-0.828,0.582-1.836,1.299-2.25l21.774-12.571c0.717-0.414,1.699-1.289,2.193-1.954l10.399-14.008
				c0.494-0.665,1.476-0.869,2.193-0.454l33.961,19.606c0.717,0.414,1.299,1.422,1.299,2.25l-0.001,11.072
				c0,0.828-0.582,1.836-1.299,2.25l-33.96,19.607C119.565,168.447,118.402,168.447,117.685,168.032z"/>
			<path id="XMLID_660_" style="fill:#455A64;" d="M120.283,163.342l21.774-12.571c0.345-0.199,0.752-0.506,1.136-0.844
				c0.414-0.364,0.801-0.766,1.057-1.111l10.399-14.008c0.494-0.665,0.313-1.54-0.405-1.954l-33.961-19.606
				c-0.717-0.414-1.699-0.211-2.193,0.454l-10.399,14.008c-0.494,0.665-1.296,1.619-2.013,2.033l-21.954,12.492
				c-0.717,0.414-0.717,1.086,0,1.5l33.96,19.607C118.402,163.756,119.565,163.756,120.283,163.342z"/>
			<path id="XMLID_38_" style="fill:#37474F;" d="M154.244,132.853l-33.96-19.606c-0.718-0.414-1.7-0.211-2.193,0.454
				l-10.399,14.008c-0.257,0.346-0.647,0.743-1.063,1.106c0,0,36.551,21.117,36.562,21.108c0.414-0.364,0.803-0.762,1.059-1.108
				l10.399-14.008C155.143,134.143,154.961,133.268,154.244,132.853z"/>
			<g id="XMLID_52_">
				<path id="XMLID_1144_" style="fill:#27DEBF;" d="M91.964,142.579c0.841-0.486,2.205-0.486,3.047,0
					c0.841,0.486,0.841,1.273,0,1.759c-0.841,0.486-2.205,0.486-3.047,0C91.123,143.852,91.123,143.065,91.964,142.579z"/>
				<path id="XMLID_1143_" style="fill:#27DEBF;" d="M98.057,146.097c0.841-0.486,2.205-0.486,3.047,0s0.841,1.273,0,1.759
					s-2.205,0.486-3.047,0C97.216,147.37,97.216,146.582,98.057,146.097z"/>
				<path id="XMLID_1142_" style="fill:#263238;" d="M104.15,149.614c0.841-0.486,2.205-0.486,3.047,0
					c0.841,0.486,0.841,1.273,0,1.759c-0.841,0.486-2.205,0.486-3.047,0C103.308,150.887,103.308,150.1,104.15,149.614z"/>
				<path id="XMLID_1141_" style="fill:#263238;" d="M110.243,153.132c0.841-0.486,2.205-0.486,3.047,0s0.841,1.273,0,1.759
					s-2.205,0.486-3.047,0C109.401,154.405,109.401,153.618,110.243,153.132z"/>
				<path id="XMLID_1139_" style="fill:#27DEBF;" d="M96.534,139.941c0.841-0.486,2.205-0.486,3.047,0s0.841,1.273,0,1.759
					c-0.841,0.486-2.205,0.486-3.047,0C95.692,141.214,95.692,140.426,96.534,139.941z"/>
				<ellipse id="XMLID_1138_" style="fill:#263238;" cx="104.15" cy="144.338" rx="2.154" ry="1.244"/>
				<path id="XMLID_1137_" style="fill:#27DEBF;" d="M108.719,146.976c0.841-0.486,2.205-0.486,3.047,0s0.841,1.273,0,1.759
					c-0.841,0.486-2.205,0.486-3.047,0C107.878,148.249,107.878,147.462,108.719,146.976z"/>
				<ellipse id="XMLID_1135_" style="fill:#263238;" cx="116.335" cy="151.373" rx="2.154" ry="1.244"/>
				<path id="XMLID_1116_" style="fill:#263238;" d="M101.103,137.302c0.841-0.486,2.205-0.486,3.046,0s0.841,1.273,0,1.759
					s-2.205,0.486-3.046,0C100.262,138.575,100.262,137.788,101.103,137.302z"/>
				<path id="XMLID_1105_" style="fill:#27DEBF;" d="M107.196,140.82c0.841-0.486,2.205-0.486,3.047,0
					c0.841,0.486,0.841,1.273,0,1.759c-0.841,0.486-2.205,0.486-3.047,0S106.355,141.306,107.196,140.82z"/>
				<path id="XMLID_1104_" style="fill:#263238;" d="M113.289,144.338c0.841-0.486,2.205-0.486,3.046,0
					c0.841,0.486,0.841,1.273,0,1.759c-0.841,0.486-2.205,0.486-3.046,0C112.448,145.611,112.448,144.823,113.289,144.338z"/>
				<path id="XMLID_663_" style="fill:#27DEBF;" d="M116.37,156.579c0.841-0.486,2.205-0.486,3.047,0
					c0.841,0.486,0.841,1.273,0,1.759c-0.841,0.486-2.205,0.486-3.047,0C115.529,157.853,115.529,157.065,116.37,156.579z"/>
				<path id="XMLID_661_" style="fill:#263238;" d="M120.939,153.941c0.841-0.486,2.205-0.486,3.047,0s0.841,1.273,0,1.759
					s-2.205,0.486-3.047,0C120.098,155.214,120.098,154.427,120.939,153.941z"/>
				<path id="XMLID_1068_" style="fill:#263238;" d="M119.382,147.858c0.841-0.486,2.205-0.486,3.047,0
					c0.841,0.486,0.841,1.273,0,1.759c-0.841,0.486-2.205,0.486-3.047,0S118.54,148.344,119.382,147.858z"/>
				<ellipse id="XMLID_1067_" style="fill:#27DEBF;" cx="107.196" cy="135.546" rx="2.154" ry="1.244"/>
				<path id="XMLID_666_" style="fill:#263238;" d="M111.765,138.184c0.841-0.486,2.205-0.486,3.047,0
					c0.841,0.486,0.841,1.273,0,1.759c-0.841,0.486-2.205,0.486-3.047,0C110.924,139.458,110.924,138.67,111.765,138.184z"/>
				<ellipse id="XMLID_664_" style="fill:#27DEBF;" cx="119.382" cy="142.581" rx="2.154" ry="1.244"/>
				<path id="XMLID_662_" style="fill:#263238;" d="M123.951,145.22c0.841-0.486,2.205-0.486,3.047,0
					c0.841,0.486,0.841,1.273,0,1.759c-0.841,0.486-2.205,0.486-3.047,0C123.11,146.493,123.11,145.705,123.951,145.22z"/>
				<path id="XMLID_54_" style="fill:#27DEBF;" d="M125.509,151.305c0.841-0.486,2.205-0.486,3.047,0
					c0.841,0.486,0.841,1.273,0,1.759c-0.841,0.486-2.205,0.486-3.047,0C124.668,152.579,124.668,151.791,125.509,151.305z"/>
				<ellipse id="XMLID_665_" style="fill:#263238;" cx="131.602" cy="149.547" rx="2.154" ry="1.244"/>
			</g>
			<path id="XMLID_667_" style="fill:#37474F;" d="M119.056,163.652v4.68c-0.49,0.01-0.99-0.08-1.37-0.3l-33.96-19.61
				c-0.72-0.41-1.3-1.42-1.3-2.25v-1.69c0-0.73,0.45-1.6,1.06-2.08c-0.47,0.41-0.39,0.97,0.24,1.33l33.96,19.61
				C118.066,163.562,118.566,163.662,119.056,163.652z"/>
			<g id="XMLID_1069_">
				<path id="XMLID_1082_" style="fill:#263238;" d="M112.183,127.124l0.03-0.041c0.328-0.444,0.982-0.58,1.46-0.304l29.553,17.063
					c0.478,0.276,0.598,0.859,0.268,1.302l-0.031,0.041c-0.33,0.443-0.986,0.578-1.464,0.302l-29.546-17.059
					C111.976,128.152,111.854,127.568,112.183,127.124z"/>
				<path id="XMLID_669_" style="fill:#27DEBF;" d="M112.183,127.124l0.03-0.041c0.328-0.444,0.982-0.58,1.46-0.304l21.972,12.685
					l-1.226,1.645l-21.964-12.681C111.976,128.152,111.854,127.568,112.183,127.124z"/>
				<path id="XMLID_1081_" style="fill:#263238;" d="M114.626,123.845l0.03-0.041c0.328-0.444,0.982-0.58,1.46-0.304l29.553,17.063
					c0.478,0.276,0.599,0.859,0.268,1.302l-0.031,0.041c-0.33,0.443-0.985,0.578-1.464,0.302l-29.546-17.059
					C114.419,124.873,114.298,124.289,114.626,123.845z"/>
				<path id="XMLID_1070_" style="fill:#27DEBF;" d="M114.626,123.845l0.03-0.041c0.328-0.444,0.982-0.58,1.46-0.304l7.346,4.239
					l-1.226,1.645l-7.338-4.235C114.419,124.873,114.298,124.289,114.626,123.845z"/>
				<path id="XMLID_1080_" style="fill:#263238;" d="M117.069,120.566l0.03-0.041c0.328-0.444,0.982-0.58,1.46-0.304l29.553,17.063
					c0.478,0.276,0.598,0.859,0.268,1.302l-0.031,0.041c-0.33,0.443-0.985,0.578-1.464,0.302L117.34,121.87
					C116.862,121.594,116.741,121.01,117.069,120.566z"/>
				<path id="XMLID_1071_" style="fill:#27DEBF;" d="M117.069,120.566l0.03-0.041c0.328-0.444,0.982-0.581,1.461-0.305l15.393,8.859
					l-1.226,1.645l-15.385-8.855C116.863,121.593,116.741,121.01,117.069,120.566z"/>
				<path id="XMLID_1079_" style="fill:#263238;" d="M119.512,117.287l0.03-0.041c0.328-0.444,0.982-0.58,1.46-0.304l29.553,17.063
					c0.478,0.276,0.598,0.859,0.268,1.302l-0.031,0.041c-0.33,0.443-0.985,0.578-1.464,0.302l-29.546-17.059
					C119.305,118.315,119.184,117.731,119.512,117.287z"/>
				<path id="XMLID_1072_" style="fill:#27DEBF;" d="M119.512,117.287l0.03-0.041c0.328-0.444,0.982-0.58,1.46-0.304l26.827,15.488
					l-1.226,1.645l-26.819-15.484C119.305,118.315,119.184,117.731,119.512,117.287z"/>
			</g>
		</g>
	</g>
</g>
<g id="Desk_2_">
	<g id="Desk_3_">
		<g id="Desk_4_">
			<g id="XMLID_280_">
				<g id="XMLID_283_">
					<path id="XMLID_284_" style="fill:#FAFAFA;" d="M256.523,308.802v54.767c0,0.414,0.291,0.918,0.65,1.125l52.497,30.271
						c0.359,0.207,0.94,0.207,1.299,0l1.747-1.009c0.359-0.207,0.65-0.711,0.65-1.125v-54.767c0-0.414-0.336-0.75-0.75-0.75
						l-55.343-29.262C256.859,308.052,256.523,308.388,256.523,308.802z"/>
				</g>
				<g id="XMLID_281_">
					<path id="XMLID_282_" style="fill:#F5F5F5;" d="M312.616,337.314h-1.547c-0.414,0-0.75,0.336-0.75,0.75l0,56.526
						c0,0.414,0.291,0.582,0.65,0.375l1.747-1.009c0.359-0.207,0.65-0.711,0.65-1.125v-54.767
						C313.366,337.65,313.03,337.314,312.616,337.314z"/>
				</g>
			</g>
			<g id="XMLID_270_">
				<g id="XMLID_273_">
					<path id="XMLID_274_" style="fill:#E0E0E0;" d="M361.068,246.046v54.767c0,0.414,0.291,0.918,0.65,1.125l54.569,31.48
						c0.359,0.207,0.94,0.207,1.299,0l1.747-1.009c0.359-0.207,0.65-0.711,0.65-1.125v-54.767c0-0.414-0.336-0.75-0.75-0.75
						l-57.414-30.47C361.404,245.296,361.068,245.632,361.068,246.046z"/>
				</g>
				<g id="XMLID_271_">
					<path id="XMLID_272_" style="fill:#EBEBEB;" d="M419.233,275.766h-1.547c-0.414,0-0.75,0.336-0.75,0.75l0,56.526
						c0,0.414,0.291,0.582,0.65,0.375l1.747-1.009c0.359-0.207,0.65-0.711,0.65-1.125v-54.767
						C419.983,276.102,419.647,275.766,419.233,275.766z"/>
				</g>
			</g>
			<g id="XMLID_261_">
				<g id="XMLID_268_">
					<path id="XMLID_269_" style="fill:#F5F5F5;" d="M251.404,307.083v-0.518c0-0.828,0.582-1.836,1.299-2.25l110.123-63.58
						c0.717-0.414,1.881-0.414,2.598,0l58.333,33.678c0.717,0.414,1.299,1.422,1.299,2.25v0.518c0,0.828-0.582,1.836-1.299,2.25
						l-110.123,63.58c-0.717,0.414-1.881,0.414-2.598,0l-58.333-33.678C251.986,308.919,251.404,307.912,251.404,307.083z"/>
				</g>
				<g id="XMLID_266_">
					<path id="XMLID_267_" style="fill:#EBEBEB;" d="M312.335,339.807v3.52c-0.47,0-0.94-0.11-1.3-0.31l-58.33-33.68
						c-0.72-0.42-1.3-1.42-1.3-2.25v-0.52c0-0.73,0.45-1.61,1.06-2.08c-0.47,0.4-0.39,0.96,0.24,1.33l58.33,33.68
						C311.395,339.707,311.865,339.807,312.335,339.807z"/>
				</g>
				<g id="XMLID_264_">
					<path id="XMLID_265_" style="fill:#FAFAFA;" d="M252.703,305.816l58.333,33.678c0.717,0.414,1.881,0.414,2.598,0l110.123-63.58
						c0.717-0.414,0.717-1.086,0-1.5l-58.333-33.678c-0.717-0.414-1.881-0.414-2.598,0l-110.123,63.58
						C251.986,304.73,251.986,305.401,252.703,305.816z"/>
				</g>
				<path id="XMLID_263_" style="fill:#EBEBEB;" d="M346.719,282.303l32.978-19.078c0.589-0.34,1.545-0.34,2.134,0l10.441,6.098
					c0.589,0.34,0.589,0.892,0,1.232l-32.978,19.078c-0.589,0.34-1.545,0.34-2.134,0l-10.441-6.098
					C346.13,283.195,346.13,282.643,346.719,282.303z"/>
				<path id="XMLID_262_" style="fill:#EBEBEB;" d="M352.565,270.468l-0.03-0.016l-3.494-2.021c-0.478-0.276-0.478-0.725,0-1.001
					l27.404-15.825c0.478-0.276,0.478-0.724,0-1l-0.279-0.161c-0.478-0.276-1.254-0.276-1.732,0l-26.631,15.375
					c-0.478,0.276-0.922,0.3-0.936,0.047c-0.009-0.155-0.001-0.308,0.028-0.455l1.51-7.818c0.105-0.542-0.199-1.204-0.678-1.478
					l-0.274-0.157c-0.479-0.274-0.952-0.057-1.056,0.485l-1.741,9.078c-0.063,0.323-0.065,0.665-0.016,1.007
					c0.079,0.547-0.116,1.184-0.595,1.461l-16.623,9.597c-0.478,0.276-0.478,0.724,0,1l0.283,0.164c0.478,0.276,1.254,0.276,1.732,0
					l15.886-9.174c0.478-0.276,0.897-0.479,0.933-0.452c0.022,0.017,0.045,0.033,0.068,0.046l5.403,3.12
					c0.478,0.276,1.255,0.278,1.733,0.003c2.37-1.362,8.934-5.144,11.304-6.509c0.478-0.276,0.636-0.629,0.351-0.79
					c-0.285-0.16-0.92-0.096-1.417,0.144l-10.202,4.91C352.999,270.289,352.582,270.477,352.565,270.468z"/>
			</g>
		</g>
		<g id="Device_1_">
			<g id="Keyboard_1_">
				<path id="XMLID_260_" style="fill:#37474F;" d="M381.691,260.699l9.878,5.703c0.589,0.34,1.067,1.134,1.067,1.772
					c0,0.638-0.478,1.432-1.067,1.772l-31.901,18.418c-0.589,0.34-1.545,0.34-2.134,0l-9.878-5.703
					c-0.589-0.34-1.067-1.134-1.067-1.772c0-0.638,0.478-1.432,1.067-1.772l31.901-18.418
					C380.147,260.358,381.102,260.358,381.691,260.699z"/>
				<path id="XMLID_259_" style="fill:#263238;" d="M358.602,288.619c-0.386,0-0.772-0.085-1.067-0.255l-9.878-5.703
					c-0.589-0.34-1.067-1.134-1.067-1.772s0.478-1.432,1.067-1.772l1.027-0.593h9.919V288.619z"/>
				<path id="XMLID_258_" style="fill:#455A64;" d="M347.65,279.116l31.901-18.418c0.589-0.34,1.545-0.34,2.134,0l9.879,5.703
					c0.589,0.34,0.589,0.892,0,1.232l-31.901,18.418c-0.589,0.34-1.545,0.34-2.134,0l-9.879-5.703
					C347.061,280.008,347.061,279.457,347.65,279.116z"/>
				<path id="XMLID_149_" style="fill:#27DEBF;" d="M376.81,269.196l1.004-0.58c0.043-0.025,0.04-0.066-0.006-0.093l-1.161-0.671
					c-0.046-0.026-0.118-0.028-0.16-0.003l-1.005,0.58c-0.043,0.025-0.04,0.066,0.006,0.092l1.161,0.671
					C376.695,269.219,376.767,269.22,376.81,269.196z M374.828,266.892l-1.004,0.58c-0.043,0.025-0.04,0.066,0.006,0.093
					l1.161,0.671c0.046,0.026,0.118,0.028,0.16,0.003l1.004-0.58c0.043-0.025,0.04-0.066-0.006-0.092l-1.161-0.671
					C374.942,266.869,374.87,266.867,374.828,266.892z M371.583,268.765l-1.7,0.981c-0.043,0.025-0.04,0.066,0.006,0.092
					l1.161,0.671c0.046,0.026,0.118,0.028,0.16,0.003l1.7-0.981c0.043-0.025,0.04-0.066-0.006-0.093l-1.161-0.671
					C371.697,268.742,371.625,268.741,371.583,268.765z M373.36,267.739l-1.005,0.58c-0.042,0.025-0.04,0.066,0.006,0.092
					l1.161,0.671c0.046,0.026,0.118,0.028,0.16,0.003l1.004-0.58c0.043-0.025,0.04-0.066-0.006-0.092l-1.161-0.671
					C373.474,267.716,373.402,267.715,373.36,267.739z M369.419,270.014l-1.004,0.58c-0.043,0.025-0.04,0.066,0.006,0.092
					l1.161,0.671c0.046,0.026,0.117,0.028,0.16,0.003l1.005-0.58c0.043-0.025,0.04-0.066-0.006-0.092l-1.161-0.671
					C369.534,269.991,369.462,269.99,369.419,270.014z M367.951,270.862l-1.004,0.58c-0.043,0.025-0.04,0.066,0.006,0.092
					l1.161,0.671c0.046,0.026,0.117,0.028,0.16,0.003l1.004-0.58c0.043-0.025,0.04-0.066-0.006-0.092l-1.161-0.671
					C368.066,270.839,367.994,270.837,367.951,270.862z M372.52,273.589l1.004-0.58c0.043-0.025,0.04-0.066-0.006-0.092
					l-1.161-0.671c-0.046-0.026-0.118-0.028-0.16-0.003l-1.004,0.58c-0.043,0.025-0.04,0.066,0.006,0.093l1.161,0.671
					C372.405,273.612,372.477,273.613,372.52,273.589z M371.052,274.436l1.004-0.58c0.043-0.025,0.04-0.066-0.006-0.093
					l-1.161-0.671c-0.046-0.026-0.118-0.028-0.16-0.003l-1.004,0.58c-0.043,0.025-0.04,0.066,0.006,0.092l1.161,0.671
					C370.937,274.459,371.009,274.461,371.052,274.436z M369.584,275.284l1.004-0.58c0.043-0.025,0.04-0.066-0.006-0.092
					l-1.161-0.671c-0.046-0.026-0.118-0.028-0.16-0.003l-1.004,0.58c-0.043,0.025-0.04,0.066,0.006,0.092l1.161,0.671
					C369.469,275.307,369.541,275.308,369.584,275.284z M368.116,276.131l1.005-0.58c0.043-0.025,0.04-0.066-0.006-0.092
					l-1.161-0.671c-0.046-0.026-0.117-0.028-0.16-0.003l-1.004,0.58c-0.043,0.025-0.04,0.066,0.006,0.092l1.161,0.671
					C368.001,276.155,368.073,276.156,368.116,276.131z M375.342,270.043l1.004-0.58c0.043-0.025,0.04-0.066-0.006-0.092
					l-1.161-0.671c-0.046-0.026-0.117-0.028-0.16-0.003l-1.005,0.58c-0.043,0.025-0.04,0.066,0.006,0.093l1.161,0.671
					C375.227,270.067,375.299,270.068,375.342,270.043z M373.988,272.741l2.241-1.294c0.043-0.025,0.04-0.066-0.006-0.092
					l-2.82-1.629c-0.046-0.026-0.118-0.028-0.16-0.003l-1.159,0.669c-0.043,0.025-0.04,0.066,0.006,0.093l1.493,0.862
					c0.046,0.026,0.048,0.068,0.006,0.093l-0.927,0.535c-0.043,0.025-0.04,0.066,0.006,0.092l1.161,0.671
					C373.873,272.764,373.945,272.766,373.988,272.741z M366.483,271.709l-1.005,0.58c-0.043,0.025-0.04,0.066,0.006,0.092
					l1.161,0.671c0.046,0.026,0.117,0.028,0.16,0.003l1.004-0.58c0.043-0.025,0.04-0.066-0.006-0.092l-1.161-0.671
					C366.598,271.686,366.526,271.685,366.483,271.709z M365.015,272.557l-1.004,0.58c-0.043,0.025-0.04,0.066,0.006,0.093
					l1.161,0.671c0.046,0.026,0.117,0.028,0.16,0.003l1.004-0.58c0.043-0.025,0.04-0.066-0.006-0.092l-1.161-0.671
					C365.13,272.534,365.058,272.532,365.015,272.557z M357.68,282.061c0.046,0.026,0.118,0.028,0.16,0.003l1.004-0.58
					c0.043-0.025,0.04-0.066-0.006-0.093l-1.161-0.671c-0.046-0.026-0.118-0.028-0.16-0.003l-1.004,0.58
					c-0.043,0.025-0.04,0.066,0.006,0.093L357.68,282.061z M353.271,279.337l-1.004,0.58c-0.043,0.025-0.04,0.066,0.006,0.092
					l1.161,0.671c0.046,0.026,0.118,0.028,0.16,0.003l1.004-0.58c0.043-0.025,0.04-0.066-0.006-0.092l-1.161-0.671
					C353.386,279.314,353.314,279.313,353.271,279.337z M355.634,281.326c0.046,0.027,0.117,0.028,0.16,0.003l1.005-0.58
					c0.043-0.025,0.04-0.066-0.006-0.092l-1.161-0.671c-0.046-0.026-0.117-0.028-0.16-0.003l-1.004,0.58
					c-0.043,0.025-0.04,0.066,0.006,0.092L355.634,281.326z M360.272,282.576l1.004-0.58c0.043-0.025,0.04-0.066-0.006-0.092
					l-1.161-0.671c-0.046-0.026-0.117-0.028-0.16-0.003l-1.004,0.58c-0.043,0.025-0.04,0.066,0.006,0.093l1.161,0.67
					C360.157,282.599,360.229,282.601,360.272,282.576z M358.643,283.42c0.046,0.027,0.117,0.028,0.16,0.003l1.005-0.58
					c0.043-0.025,0.04-0.066-0.006-0.092l-1.161-0.671c-0.046-0.026-0.118-0.028-0.16-0.003l-1.004,0.58
					c-0.043,0.025-0.04,0.066,0.006,0.092L358.643,283.42z M354.739,278.49l-1.004,0.58c-0.043,0.025-0.04,0.066,0.006,0.092
					l1.161,0.671c0.046,0.026,0.117,0.028,0.16,0.003l1.004-0.58c0.043-0.025,0.04-0.066-0.006-0.092l-1.161-0.671
					C354.854,278.467,354.782,278.465,354.739,278.49z M362.079,274.252l-1.004,0.58c-0.043,0.025-0.04,0.066,0.006,0.092
					l1.161,0.671c0.046,0.026,0.118,0.028,0.16,0.003l1.004-0.58c0.043-0.025,0.04-0.066-0.006-0.092l-1.161-0.671
					C362.194,274.229,362.122,274.228,362.079,274.252z M356.207,277.642l-1.004,0.58c-0.043,0.025-0.04,0.066,0.006,0.092
					l1.161,0.671c0.046,0.026,0.117,0.028,0.16,0.003l1.004-0.58c0.043-0.025,0.04-0.066-0.006-0.092l-1.161-0.671
					C356.322,277.619,356.25,277.618,356.207,277.642z M363.547,273.405l-1.004,0.58c-0.043,0.025-0.04,0.066,0.006,0.092
					l1.161,0.671c0.046,0.026,0.118,0.028,0.16,0.003l1.004-0.58c0.043-0.025,0.04-0.066-0.006-0.092l-1.161-0.671
					C363.662,273.381,363.59,273.38,363.547,273.405z M360.611,275.1l-1.004,0.58c-0.043,0.025-0.04,0.066,0.006,0.093l1.161,0.67
					c0.046,0.026,0.118,0.028,0.16,0.003l1.004-0.58c0.043-0.025,0.04-0.066-0.006-0.092l-1.161-0.671
					C360.726,275.077,360.654,275.075,360.611,275.1z M359.143,275.947l-1.004,0.58c-0.043,0.025-0.04,0.066,0.006,0.092
					l1.161,0.671c0.046,0.026,0.118,0.028,0.16,0.003l1.005-0.58c0.043-0.025,0.04-0.066-0.006-0.093l-1.161-0.671
					C359.258,275.924,359.186,275.923,359.143,275.947z M357.675,276.795l-1.004,0.58c-0.043,0.025-0.04,0.066,0.006,0.092
					l1.161,0.671c0.046,0.027,0.117,0.028,0.16,0.003l1.004-0.58c0.043-0.025,0.04-0.066-0.006-0.093l-1.161-0.671
					C357.79,276.772,357.718,276.77,357.675,276.795z M365.18,277.827l1.004-0.58c0.043-0.025,0.04-0.066-0.006-0.092l-1.161-0.671
					c-0.046-0.026-0.117-0.028-0.16-0.003l-1.004,0.58c-0.043,0.025-0.04,0.066,0.006,0.092l1.161,0.671
					C365.065,277.85,365.137,277.851,365.18,277.827z M378.073,265.018l-1.004,0.58c-0.043,0.025-0.04,0.066,0.006,0.092
					l1.161,0.671c0.046,0.026,0.117,0.028,0.16,0.003l1.004-0.58c0.043-0.025,0.04-0.066-0.006-0.092l-1.161-0.671
					C378.187,264.995,378.116,264.994,378.073,265.018z M376.296,266.044l-1.004,0.58c-0.043,0.025-0.04,0.066,0.006,0.092
					l1.161,0.671c0.046,0.026,0.117,0.028,0.16,0.003l1.004-0.58c0.043-0.025,0.04-0.066-0.006-0.093l-1.161-0.671
					C376.41,266.021,376.338,266.02,376.296,266.044z M379.541,264.171l-1.004,0.58c-0.043,0.025-0.04,0.066,0.006,0.092
					l1.161,0.671c0.046,0.026,0.118,0.028,0.16,0.003l1.005-0.58c0.043-0.025,0.04-0.066-0.006-0.093l-1.161-0.671
					C379.655,264.148,379.583,264.146,379.541,264.171z M371.942,272.006l1.004-0.58c0.043-0.025,0.04-0.066-0.006-0.093
					l-1.161-0.671c-0.046-0.026-0.118-0.028-0.16-0.003l-1.004,0.58c-0.043,0.025-0.04,0.066,0.006,0.092l1.161,0.671
					C371.828,272.029,371.9,272.031,371.942,272.006z M381.169,263.326c-0.046-0.026-0.118-0.028-0.16-0.003l-1.004,0.58
					c-0.043,0.025-0.04,0.066,0.006,0.092l1.161,0.671c0.046,0.026,0.117,0.028,0.16,0.003l1.004-0.58
					c0.043-0.025,0.04-0.066-0.006-0.092L381.169,263.326z M366.648,276.979l1.004-0.58c0.043-0.025,0.04-0.066-0.006-0.092
					l-1.161-0.671c-0.046-0.026-0.117-0.028-0.16-0.003l-1.004,0.58c-0.043,0.025-0.04,0.066,0.006,0.092l1.161,0.671
					C366.533,277.002,366.605,277.004,366.648,276.979z M384.65,266.585l1.004-0.58c0.043-0.025,0.04-0.066-0.006-0.093
					l-1.161-0.671c-0.046-0.027-0.117-0.028-0.16-0.003l-1.004,0.58c-0.043,0.025-0.04,0.066,0.006,0.092l1.161,0.671
					C384.536,266.608,384.607,266.61,384.65,266.585z M381.523,266.475l1.004-0.58c0.043-0.025,0.04-0.066-0.006-0.092l-1.161-0.671
					c-0.046-0.026-0.117-0.028-0.16-0.003l-1.004,0.58c-0.043,0.025-0.04,0.066,0.006,0.092l1.161,0.671
					C381.408,266.498,381.48,266.5,381.523,266.475z M382.828,264.284c-0.046-0.026-0.117-0.028-0.16-0.003l-1.004,0.58
					c-0.043,0.025-0.04,0.066,0.006,0.092l1.161,0.671c0.046,0.027,0.118,0.028,0.16,0.003l1.004-0.58
					c0.043-0.025,0.04-0.066-0.006-0.092L382.828,264.284z M383.137,264.106l2.82,1.629c0.046,0.026,0.117,0.028,0.16,0.003
					l1.004-0.58c0.043-0.025,0.04-0.066-0.006-0.093l-2.821-1.629c-0.046-0.026-0.118-0.028-0.16-0.003l-1.004,0.58
					C383.089,264.038,383.091,264.079,383.137,264.106z M379.732,265.976l-1.004,0.58c-0.043,0.025-0.04,0.066,0.006,0.092
					l1.162,0.671c0.046,0.027,0.118,0.028,0.16,0.003l1.004-0.58c0.043-0.025,0.04-0.066-0.006-0.092l-1.161-0.671
					C379.846,265.953,379.775,265.952,379.732,265.976z M368.683,272.355l-1.004,0.58c-0.043,0.025-0.04,0.066,0.006,0.092
					l1.161,0.671c0.046,0.026,0.118,0.028,0.16,0.003l1.005-0.58c0.043-0.025,0.04-0.066-0.006-0.093l-1.161-0.671
					C368.798,272.332,368.726,272.33,368.683,272.355z M383.022,267.43c0.046,0.026,0.117,0.028,0.16,0.003l1.005-0.58
					c0.042-0.025,0.04-0.066-0.006-0.092l-1.161-0.671c-0.046-0.027-0.117-0.028-0.16-0.003l-1.004,0.58
					c-0.043,0.025-0.04,0.066,0.006,0.092L383.022,267.43z M370.151,271.508l-1.004,0.58c-0.043,0.025-0.04,0.066,0.006,0.093
					l1.161,0.671c0.046,0.027,0.118,0.028,0.16,0.003l1.004-0.58c0.043-0.025,0.04-0.066-0.006-0.092l-1.161-0.671
					C370.266,271.484,370.194,271.483,370.151,271.508z M359.147,281.213c0.046,0.027,0.118,0.028,0.16,0.003l1.004-0.58
					c0.043-0.025,0.04-0.066-0.006-0.093l-1.161-0.671c-0.046-0.026-0.117-0.028-0.16-0.003l-1.004,0.58
					c-0.043,0.025-0.04,0.066,0.006,0.092L359.147,281.213z M356.939,279.135l-1.004,0.58c-0.043,0.024-0.04,0.066,0.006,0.092
					l1.161,0.671c0.046,0.026,0.118,0.028,0.16,0.003l1.004-0.58c0.043-0.025,0.04-0.066-0.006-0.093l-1.161-0.671
					C357.054,279.112,356.982,279.111,356.939,279.135z M360.776,280.369l1.004-0.58c0.043-0.025,0.04-0.066-0.006-0.093
					l-1.161-0.67c-0.046-0.027-0.118-0.028-0.16-0.003l-1.004,0.58c-0.043,0.025-0.04,0.066,0.006,0.092l1.161,0.671
					C360.661,280.392,360.733,280.394,360.776,280.369z M362.244,279.522l1.004-0.58c0.043-0.025,0.04-0.066-0.006-0.092
					l-1.161-0.671c-0.046-0.026-0.117-0.028-0.16-0.003l-1.005,0.58c-0.043,0.025-0.04,0.066,0.006,0.092l1.161,0.671
					C362.129,279.545,362.201,279.546,362.244,279.522z M363.712,278.674l1.004-0.58c0.043-0.025,0.04-0.066-0.006-0.093
					l-1.161-0.671c-0.046-0.026-0.118-0.028-0.16-0.003l-1.004,0.58c-0.043,0.025-0.04,0.066,0.006,0.092l1.161,0.671
					C363.597,278.697,363.669,278.699,363.712,278.674z M358.407,278.288l-1.004,0.58c-0.043,0.025-0.04,0.066,0.006,0.093
					l1.161,0.671c0.046,0.026,0.118,0.028,0.16,0.003l1.004-0.58c0.043-0.025,0.04-0.066-0.006-0.092l-1.161-0.671
					C358.522,278.265,358.45,278.263,358.407,278.288z M359.875,277.44l-1.004,0.58c-0.043,0.025-0.04,0.066,0.006,0.092
					l1.161,0.671c0.046,0.027,0.118,0.028,0.16,0.003l1.004-0.58c0.043-0.025,0.04-0.066-0.006-0.092l-1.161-0.671
					C359.99,277.417,359.918,277.416,359.875,277.44z M365.747,274.05l-1.004,0.58c-0.043,0.025-0.04,0.066,0.006,0.093l1.161,0.67
					c0.046,0.026,0.117,0.028,0.16,0.003l1.004-0.58c0.043-0.025,0.04-0.066-0.006-0.093l-1.161-0.671
					C365.862,274.027,365.79,274.026,365.747,274.05z M364.279,274.898l-1.004,0.58c-0.043,0.025-0.04,0.066,0.006,0.092
					l1.161,0.671c0.046,0.027,0.118,0.028,0.16,0.003l1.004-0.58c0.043-0.025,0.04-0.066-0.006-0.093l-1.161-0.671
					C364.394,274.875,364.322,274.873,364.279,274.898z M367.215,273.203l-1.004,0.58c-0.043,0.025-0.04,0.066,0.006,0.092
					l1.161,0.671c0.046,0.027,0.118,0.028,0.16,0.003l1.004-0.58c0.043-0.025,0.04-0.066-0.006-0.092l-1.161-0.671
					C367.33,273.18,367.258,273.178,367.215,273.203z M361.343,276.593l-1.005,0.58c-0.043,0.025-0.04,0.066,0.006,0.092
					l1.161,0.671c0.046,0.026,0.118,0.028,0.16,0.003l1.004-0.58c0.043-0.025,0.04-0.066-0.006-0.092l-1.161-0.671
					C361.458,276.57,361.386,276.568,361.343,276.593z M362.811,275.745l-1.004,0.58c-0.043,0.025-0.04,0.066,0.006,0.092
					l1.161,0.671c0.046,0.026,0.118,0.028,0.16,0.003l1.004-0.58c0.043-0.025,0.04-0.066-0.006-0.092l-1.161-0.671
					C362.926,275.722,362.854,275.721,362.811,275.745z M361.74,281.728l1.004-0.58c0.043-0.025,0.04-0.066-0.006-0.092
					l-1.161-0.671c-0.046-0.026-0.118-0.028-0.16-0.003l-1.004,0.58c-0.043,0.025-0.04,0.066,0.006,0.093l1.161,0.671
					C361.625,281.752,361.697,281.753,361.74,281.728z M353.125,280.859l-1.161-0.671c-0.046-0.026-0.118-0.028-0.16-0.003
					l-1.004,0.58c-0.043,0.025-0.04,0.066,0.006,0.092l1.161,0.671c0.046,0.027,0.118,0.028,0.16,0.003l1.004-0.58
					C353.173,280.927,353.171,280.885,353.125,280.859z M355.325,281.504l-1.161-0.67c-0.046-0.027-0.118-0.028-0.16-0.003
					l-1.545,0.892c-0.043,0.025-0.04,0.066,0.006,0.092l1.161,0.671c0.046,0.026,0.117,0.028,0.16,0.003l1.545-0.892
					C355.373,281.572,355.371,281.531,355.325,281.504z M351.343,279.562l-1.161-0.67c-0.046-0.026-0.118-0.028-0.16-0.003
					l-1.236,0.714c-0.043,0.025-0.04,0.066,0.006,0.092l1.161,0.671c0.046,0.026,0.118,0.028,0.16,0.003l1.236-0.714
					C351.391,279.63,351.389,279.589,351.343,279.562z M352.291,279.015c0.046,0.026,0.117,0.028,0.16,0.003l1.004-0.58
					c0.043-0.025,0.04-0.066-0.006-0.092l-1.161-0.671c-0.046-0.027-0.118-0.028-0.16-0.003l-1.004,0.58
					c-0.043,0.025-0.04,0.066,0.006,0.093L352.291,279.015z M357.37,282.239l-1.161-0.671c-0.046-0.026-0.118-0.028-0.16-0.003
					l-1.932,1.115c-0.043,0.025-0.04,0.066,0.006,0.092l1.161,0.671c0.046,0.026,0.117,0.028,0.16,0.003l1.932-1.115
					C357.419,282.307,357.416,282.266,357.37,282.239z M358.334,283.599l-1.161-0.671c-0.046-0.026-0.117-0.028-0.16-0.003
					l-1.236,0.714c-0.043,0.025-0.04,0.066,0.006,0.092l1.161,0.671c0.046,0.026,0.118,0.028,0.16,0.003l1.236-0.714
					C358.383,283.667,358.38,283.625,358.334,283.599z M363.206,272.714c0.046,0.026,0.117,0.028,0.16,0.003l1.004-0.58
					c0.043-0.025,0.04-0.066-0.006-0.092l-1.161-0.671c-0.046-0.026-0.118-0.028-0.16-0.003l-1.004,0.58
					c-0.043,0.025-0.04,0.066,0.006,0.092L363.206,272.714z M360.27,274.409c0.046,0.026,0.117,0.028,0.16,0.003l1.005-0.58
					c0.043-0.025,0.04-0.066-0.006-0.092l-1.161-0.671c-0.046-0.026-0.117-0.028-0.16-0.003l-1.004,0.58
					c-0.043,0.025-0.04,0.066,0.006,0.093L360.27,274.409z M353.759,278.168c0.046,0.026,0.118,0.028,0.16,0.003l1.004-0.58
					c0.043-0.025,0.04-0.066-0.006-0.092l-1.161-0.671c-0.046-0.026-0.118-0.028-0.16-0.003l-1.004,0.58
					c-0.043,0.025-0.04,0.066,0.006,0.092L353.759,278.168z M361.737,273.561c0.046,0.027,0.118,0.028,0.16,0.003l1.004-0.58
					c0.043-0.025,0.04-0.066-0.006-0.092l-1.161-0.671c-0.046-0.026-0.117-0.028-0.16-0.003l-1.004,0.58
					c-0.043,0.025-0.04,0.066,0.006,0.093L361.737,273.561z M358.802,275.256c0.046,0.026,0.117,0.028,0.16,0.003l1.004-0.58
					c0.043-0.025,0.04-0.066-0.006-0.093l-1.161-0.671c-0.046-0.026-0.118-0.028-0.16-0.003l-1.004,0.58
					c-0.043,0.025-0.04,0.066,0.006,0.093L358.802,275.256z M359.141,283.708c-0.046-0.026-0.118-0.028-0.16-0.003l-1.545,0.892
					c-0.043,0.025-0.04,0.066,0.006,0.092l1.161,0.671c0.046,0.026,0.118,0.028,0.16,0.003l1.545-0.892
					c0.043-0.025,0.04-0.066-0.006-0.092L359.141,283.708z M356.695,276.473c0.046,0.026,0.117,0.028,0.16,0.003l1.004-0.58
					c0.043-0.025,0.04-0.066-0.006-0.092l-1.161-0.671c-0.046-0.027-0.118-0.028-0.16-0.003l-1.004,0.58
					c-0.043,0.025-0.04,0.066,0.006,0.092L356.695,276.473z M355.227,277.32c0.046,0.026,0.118,0.028,0.16,0.003l1.004-0.58
					c0.043-0.025,0.04-0.066-0.006-0.092l-1.161-0.671c-0.046-0.027-0.118-0.028-0.16-0.003l-1.004,0.58
					c-0.043,0.025-0.04,0.066,0.006,0.092L355.227,277.32z M386.338,268.006c-0.046-0.026-0.117-0.028-0.16-0.003l-2.472,1.427
					c-0.043,0.025-0.04,0.066,0.006,0.092l1.162,0.671c0.046,0.026,0.117,0.028,0.16,0.003l2.472-1.427
					c0.043-0.025,0.04-0.066-0.006-0.092L386.338,268.006z M383.093,269.879c-0.046-0.026-0.118-0.028-0.16-0.003l-1.004,0.58
					c-0.043,0.025-0.04,0.066,0.006,0.093l1.161,0.671c0.046,0.026,0.118,0.028,0.16,0.003l1.004-0.58
					c0.043-0.025,0.04-0.066-0.006-0.093L383.093,269.879z M363.208,280.881l1.004-0.58c0.043-0.025,0.04-0.066-0.006-0.093
					l-1.161-0.671c-0.046-0.026-0.118-0.028-0.16-0.003l-1.004,0.58c-0.043,0.025-0.04,0.066,0.006,0.092l1.161,0.671
					C363.093,280.904,363.165,280.906,363.208,280.881z M380.157,271.574c-0.046-0.026-0.118-0.028-0.16-0.003l-1.004,0.58
					c-0.043,0.025-0.04,0.066,0.006,0.093l1.161,0.671c0.046,0.026,0.118,0.028,0.16,0.003l1.004-0.58
					c0.043-0.025,0.04-0.066-0.006-0.092L380.157,271.574z M387.806,267.158c-0.046-0.027-0.117-0.028-0.16-0.003l-1.004,0.58
					c-0.043,0.025-0.04,0.066,0.006,0.092l1.161,0.671c0.046,0.026,0.118,0.028,0.16,0.003l1.004-0.58
					c0.043-0.025,0.04-0.066-0.006-0.092L387.806,267.158z M390.435,266.981l-2.821-1.629c-0.046-0.026-0.117-0.028-0.16-0.003
					l-1.004,0.58c-0.043,0.025-0.04,0.066,0.006,0.092l2.821,1.629c0.046,0.026,0.117,0.028,0.16,0.003l1.004-0.58
					C390.484,267.049,390.481,267.008,390.435,266.981z M374.671,274.741c-0.046-0.026-0.118-0.028-0.16-0.003l-1.236,0.714
					c-0.043,0.025-0.04,0.066,0.006,0.093l1.161,0.671c0.046,0.026,0.117,0.028,0.16,0.003l1.236-0.714
					c0.043-0.025,0.04-0.066-0.006-0.092L374.671,274.741z M378.38,272.6c-0.046-0.026-0.118-0.028-0.16-0.003l-1.545,0.892
					c-0.043,0.025-0.04,0.066,0.006,0.092l1.161,0.671c0.046,0.026,0.117,0.028,0.16,0.003l1.545-0.892
					c0.043-0.025,0.04-0.066-0.006-0.092L378.38,272.6z M371.272,276.704c-0.046-0.026-0.118-0.028-0.16-0.003l-8.267,4.773
					c-0.043,0.025-0.04,0.066,0.006,0.092l1.161,0.671c0.046,0.026,0.117,0.028,0.16,0.003l8.267-4.773
					c0.043-0.025,0.04-0.066-0.006-0.093L371.272,276.704z M362.541,281.745c-0.046-0.026-0.118-0.028-0.16-0.003l-1.236,0.714
					c-0.043,0.025-0.04,0.066,0.006,0.092l1.161,0.671c0.046,0.026,0.118,0.028,0.16,0.003l1.236-0.714
					c0.043-0.025,0.04-0.066-0.006-0.092L362.541,281.745z M372.971,275.723c-0.046-0.026-0.118-0.028-0.16-0.003l-1.236,0.714
					c-0.043,0.025-0.04,0.066,0.006,0.092l1.161,0.671c0.046,0.027,0.118,0.028,0.16,0.003l1.236-0.714
					c0.043-0.025,0.04-0.066-0.006-0.092L372.971,275.723z M360.841,282.726c-0.046-0.026-0.117-0.028-0.16-0.003l-1.236,0.714
					c-0.043,0.025-0.04,0.066,0.006,0.093l1.161,0.671c0.046,0.026,0.117,0.028,0.16,0.003l1.236-0.714
					c0.043-0.025,0.04-0.066-0.006-0.093L360.841,282.726z M376.371,273.76c-0.046-0.026-0.117-0.028-0.16-0.003l-1.236,0.714
					c-0.043,0.025-0.04,0.066,0.006,0.092l1.161,0.671c0.046,0.026,0.118,0.028,0.16,0.003l1.236-0.714
					c0.043-0.025,0.04-0.066-0.006-0.092L376.371,273.76z M381.625,270.727c-0.046-0.026-0.118-0.028-0.16-0.003l-1.004,0.58
					c-0.043,0.025-0.04,0.066,0.006,0.092l1.161,0.671c0.046,0.026,0.117,0.028,0.16,0.003l1.004-0.58
					c0.043-0.025,0.04-0.066-0.006-0.093L381.625,270.727z M384.841,268.391l1.004-0.58c0.043-0.025,0.04-0.066-0.006-0.092
					l-1.161-0.671c-0.046-0.026-0.117-0.028-0.16-0.003l-1.004,0.58c-0.043,0.025-0.04,0.066,0.006,0.092l1.161,0.671
					C384.727,268.414,384.799,268.415,384.841,268.391z M378.278,268.348l1.004-0.58c0.043-0.025,0.04-0.066-0.006-0.093
					l-1.161-0.67c-0.046-0.026-0.118-0.028-0.16-0.003l-1.004,0.58c-0.043,0.025-0.04,0.066,0.006,0.092l1.161,0.67
					C378.163,268.371,378.235,268.373,378.278,268.348z M374.952,274.1l2.936-1.695c0.043-0.025,0.04-0.066-0.006-0.092
					l-1.161-0.671c-0.046-0.026-0.117-0.028-0.16-0.003l-2.936,1.695c-0.043,0.025-0.04,0.066,0.006,0.092l1.161,0.671
					C374.837,274.124,374.909,274.125,374.952,274.1z M383.213,269.235c0.046,0.026,0.118,0.028,0.16,0.003l1.004-0.58
					c0.043-0.025,0.04-0.066-0.006-0.093l-1.161-0.671c-0.046-0.026-0.118-0.028-0.16-0.003l-1.005,0.58
					c-0.043,0.025-0.04,0.066,0.006,0.092L383.213,269.235z M381.714,268.28l1.004-0.58c0.043-0.025,0.04-0.066-0.006-0.092
					l-1.161-0.671c-0.046-0.027-0.118-0.028-0.16-0.003l-1.004,0.58c-0.043,0.025-0.04,0.066,0.006,0.092l1.161,0.671
					C381.6,268.303,381.671,268.305,381.714,268.28z M373.483,274.948l1.005-0.58c0.043-0.025,0.04-0.066-0.006-0.092l-1.161-0.671
					c-0.046-0.026-0.118-0.028-0.16-0.003l-1.004,0.58c-0.043,0.025-0.04,0.066,0.006,0.092l1.161,0.671
					C373.369,274.971,373.441,274.973,373.483,274.948z M379.968,271.108c0.046,0.027,0.118,0.028,0.16,0.003l1.004-0.58
					c0.043-0.025,0.04-0.066-0.006-0.092l-1.161-0.671c-0.046-0.026-0.118-0.028-0.16-0.003l-1.004,0.58
					c-0.043,0.025-0.04,0.066,0.006,0.093L379.968,271.108z M366.144,279.186l1.004-0.58c0.043-0.025,0.04-0.066-0.006-0.092
					l-1.161-0.671c-0.046-0.026-0.118-0.028-0.16-0.003l-1.004,0.58c-0.043,0.025-0.04,0.066,0.006,0.092l1.161,0.671
					C366.029,279.209,366.101,279.211,366.144,279.186z M367.612,278.338l1.004-0.58c0.043-0.025,0.04-0.066-0.006-0.092
					l-1.161-0.671c-0.046-0.026-0.117-0.028-0.16-0.003l-1.004,0.58c-0.043,0.025-0.04,0.066,0.006,0.092l1.161,0.671
					C367.497,278.361,367.569,278.363,367.612,278.338z M364.676,280.033l1.004-0.58c0.043-0.025,0.04-0.066-0.006-0.092
					l-1.161-0.671c-0.046-0.026-0.118-0.028-0.16-0.003l-1.004,0.58c-0.043,0.025-0.04,0.066,0.006,0.093l1.161,0.671
					C364.561,280.056,364.633,280.058,364.676,280.033z M370.547,276.643l1.004-0.58c0.043-0.025,0.04-0.066-0.006-0.093
					l-1.161-0.671c-0.046-0.026-0.118-0.028-0.16-0.003l-1.004,0.58c-0.043,0.025-0.04,0.066,0.006,0.092l1.161,0.671
					C370.433,276.666,370.505,276.668,370.547,276.643z M369.079,277.491l1.004-0.58c0.043-0.025,0.04-0.066-0.006-0.092
					l-1.161-0.671c-0.046-0.026-0.118-0.028-0.16-0.003l-1.004,0.58c-0.043,0.025-0.04,0.066,0.006,0.092l1.161,0.671
					C368.965,277.514,369.037,277.515,369.079,277.491z M372.016,275.796l1.004-0.58c0.043-0.025,0.04-0.066-0.006-0.092
					l-1.161-0.671c-0.046-0.026-0.118-0.028-0.16-0.003l-1.004,0.58c-0.043,0.025-0.04,0.066,0.006,0.092l1.161,0.671
					C371.901,275.819,371.973,275.82,372.016,275.796z M378.732,263.258c0.046,0.026,0.118,0.028,0.16,0.003l1.004-0.58
					c0.043-0.025,0.04-0.066-0.006-0.092l-0.309-0.179c-0.046-0.026-0.118-0.028-0.16-0.003l-1.004,0.58
					c-0.042,0.025-0.04,0.066,0.006,0.092L378.732,263.258z M371.509,267.92c0.046,0.027,0.118,0.028,0.16,0.003l1.004-0.58
					c0.043-0.025,0.04-0.066-0.006-0.093l-1.161-0.67c-0.046-0.027-0.118-0.028-0.16-0.004l-1.004,0.58
					c-0.043,0.025-0.04,0.066,0.006,0.093L371.509,267.92z M374.445,266.225c0.046,0.026,0.117,0.028,0.16,0.003l1.004-0.58
					c0.043-0.025,0.04-0.066-0.006-0.093l-1.161-0.671c-0.046-0.026-0.118-0.028-0.16-0.003l-1.005,0.58
					c-0.043,0.025-0.04,0.066,0.006,0.092L374.445,266.225z M369.716,268.955c0.046,0.026,0.118,0.028,0.16,0.003l1.004-0.58
					c0.043-0.025,0.04-0.066-0.006-0.093l-1.161-0.671c-0.046-0.026-0.118-0.028-0.16-0.003l-1.004,0.58
					c-0.043,0.025-0.04,0.066,0.006,0.093L369.716,268.955z M372.977,267.072c0.046,0.026,0.118,0.028,0.16,0.003l1.004-0.58
					c0.043-0.025,0.04-0.066-0.006-0.092l-1.161-0.671c-0.046-0.027-0.118-0.028-0.16-0.003l-1.004,0.58
					c-0.043,0.025-0.04,0.066,0.006,0.093L372.977,267.072z M366.78,270.65c0.046,0.026,0.117,0.028,0.16,0.003l1.004-0.58
					c0.043-0.025,0.04-0.066-0.006-0.093l-1.161-0.671c-0.046-0.026-0.118-0.028-0.16-0.003l-1.004,0.58
					c-0.043,0.025-0.04,0.066,0.006,0.093L366.78,270.65z M368.248,269.802c0.046,0.026,0.117,0.028,0.16,0.003l1.004-0.58
					c0.043-0.025,0.04-0.066-0.006-0.092l-1.161-0.671c-0.046-0.026-0.117-0.028-0.16-0.003l-1.004,0.58
					c-0.043,0.025-0.04,0.066,0.006,0.093L368.248,269.802z M375.796,264.953c0.046,0.026,0.118,0.028,0.16,0.003l1.004-0.58
					c0.043-0.025,0.04-0.066-0.006-0.092l-0.309-0.178c-0.046-0.026-0.118-0.028-0.16-0.003l-1.004,0.58
					c-0.043,0.025-0.04,0.066,0.006,0.092L375.796,264.953z M380.2,262.41c0.046,0.026,0.117,0.028,0.16,0.003l1.004-0.58
					c0.043-0.025,0.04-0.066-0.006-0.092l-0.309-0.179c-0.046-0.026-0.118-0.028-0.16-0.003l-1.004,0.58
					c-0.043,0.025-0.04,0.066,0.006,0.093L380.2,262.41z M382.639,263.819c0.046,0.026,0.118,0.028,0.16,0.003l1.004-0.58
					c0.043-0.025,0.04-0.066-0.006-0.092l-1.161-0.671c-0.046-0.026-0.118-0.028-0.16-0.003l-1.004,0.58
					c-0.043,0.025-0.04,0.066,0.006,0.092L382.639,263.819z M386.309,267.543l1.004-0.58c0.043-0.025,0.04-0.066-0.006-0.092
					l-1.161-0.671c-0.046-0.026-0.118-0.028-0.16-0.003l-1.004,0.58c-0.043,0.025-0.04,0.066,0.006,0.092l1.161,0.671
					C386.195,267.566,386.267,267.568,386.309,267.543z M377.264,264.105c0.046,0.027,0.117,0.028,0.16,0.003l1.005-0.58
					c0.043-0.025,0.04-0.066-0.006-0.092l-0.309-0.179c-0.046-0.026-0.118-0.028-0.16-0.003l-1.004,0.58
					c-0.043,0.025-0.04,0.066,0.006,0.092L377.264,264.105z M365.312,271.497c0.046,0.027,0.118,0.028,0.16,0.003l1.004-0.58
					c0.043-0.025,0.04-0.066-0.006-0.093l-1.161-0.671c-0.046-0.026-0.118-0.028-0.16-0.003l-1.005,0.58
					c-0.043,0.025-0.04,0.066,0.006,0.092L365.312,271.497z"/>
			</g>
			<g id="Computer_1_">
				<g id="XMLID_145_">
					<path id="XMLID_148_" style="fill:#455A64;" d="M364.597,262.396l-12.002,6.932l-0.06-0.031l-4.53-2.62
						c-0.78-0.45-1.28-1.54-1.11-2.42l1.7-8.8l10-8.09l2,1.16l-1.69,8.8c-0.17,0.88,0.32,1.97,1.1,2.42L364.597,262.396z"/>
					<path id="XMLID_147_" style="fill:#263238;" d="M352.595,269.328l0,2.309l-6.27-3.62c-1.18-0.67-1.93-2.32-1.67-3.65
						l1.93-10.06l2.01,1.15l-1.7,8.8c-0.17,0.88,0.33,1.97,1.11,2.42l4.53,2.62L352.595,269.328z"/>
					<polygon id="XMLID_146_" style="fill:#37474F;" points="364.597,262.396 352.595,269.328 352.596,271.641 364.599,264.706 
											"/>
				</g>
				<g id="XMLID_140_">
					<path id="XMLID_144_" style="fill:#455A64;" d="M375.62,204.022c0.553,0.319,1.001,1.13,1.001,1.81l0,36.836
						c0,0.68-0.478,1.508-1.067,1.848l-45.915,26.509c-0.589,0.34-1.515,0.357-2.068,0.038c-0.553-0.319-1.001-1.13-1.001-1.81
						l0-36.836c0-0.68,0.478-1.508,1.067-1.848l45.915-26.509C374.141,203.72,375.067,203.703,375.62,204.022z"/>
					<path id="XMLID_143_" style="fill:#263238;" d="M329.638,271.025c-0.589,0.34-1.515,0.357-2.068,0.038
						c-0.553-0.319-1.001-1.13-1.001-1.81l0-36.836c0-0.34,0.12-0.717,0.313-1.052l35.724,20.625L329.638,271.025z"/>
					<path id="XMLID_142_" style="fill:#37474F;" d="M376.62,242.668l0-36.836c0-0.681-0.478-0.956-1.067-0.616l-45.915,26.509
						c-0.589,0.34-1.067,1.168-1.067,1.848l0,36.836c0,0.681,0.478,0.956,1.067,0.616l45.915-26.509
						C376.143,244.176,376.62,243.348,376.62,242.668z"/>
					<path id="XMLID_141_" style="fill:#FFFFFF;" d="M374.006,207.274l-43.58,25.153c-0.471,0.272-0.854,0.934-0.854,1.479l0,32.705
						c0,0.544,0.382,0.765,0.854,0.493l43.581-25.153c0.471-0.272,0.854-0.934,0.854-1.479l0-32.705
						C374.86,207.222,374.478,207.001,374.006,207.274z"/>
				</g>
			</g>
		</g>
		<g id="Box_1_">
			<path id="XMLID_139_" style="fill:#263238;" d="M313.079,326.585l-25.846-14.912c-0.717-0.414-1.299-1.421-1.299-2.25
				l-0.003-15.763c0-0.828,0.581-1.836,1.299-2.25l17.716-10.225c0.717-0.414,1.881-0.414,2.598,0l25.831,14.913
				c0.717,0.414,1.299,1.421,1.3,2.25l0.009,15.762c0,0.828-0.581,1.836-1.298,2.25l-17.707,10.224
				C314.96,326.999,313.797,326.999,313.079,326.585z"/>
			<path id="XMLID_138_" style="fill:#455A64;" d="M315.669,307.825l17.704-10.226c0.717-0.414,0.717-1.086,0-1.5l-25.831-14.913
				c-0.717-0.414-1.881-0.414-2.598,0l-17.716,10.225c-0.717,0.414-0.717,1.085,0,1.5l25.842,14.915
				C313.789,308.24,314.952,308.239,315.669,307.825z"/>
			<path id="XMLID_137_" style="fill:#37474F;" d="M314.375,308.137v18.76c-0.47,0-0.94-0.11-1.3-0.31l-25.84-14.91
				c-0.72-0.42-1.3-1.42-1.3-2.25l-0.01-15.77c0-0.692,0.429-1.499,0.987-1.993c-0.365,0.404-0.266,0.909,0.313,1.243l25.85,14.92
				C313.435,308.027,313.895,308.137,314.375,308.137z"/>
			<g id="XMLID_125_">
				<path id="XMLID_136_" style="fill:#37474F;" d="M293.701,292.363c0.464-0.273,1.228-0.271,1.706,0.005l18.579,10.726
					c0.478,0.276,0.49,0.722,0.026,0.995c-0.464,0.273-1.228,0.271-1.706-0.005l-18.578-10.726
					C293.249,293.082,293.237,292.637,293.701,292.363z"/>
				<path id="XMLID_135_" style="fill:#27DEBF;" d="M293.701,292.363c0.464-0.273,1.228-0.271,1.706,0.005l11.311,6.531l-1.681,0.99
					l-11.31-6.531C293.249,293.082,293.237,292.637,293.701,292.363z"/>
				<path id="XMLID_134_" style="fill:#37474F;" d="M296.923,290.503c0.464-0.273,1.228-0.271,1.706,0.005l18.579,10.726
					c0.478,0.276,0.49,0.721,0.026,0.995c-0.464,0.273-1.228,0.271-1.706-0.005l-18.578-10.726
					C296.471,291.222,296.459,290.776,296.923,290.503z"/>
				<path id="XMLID_133_" style="fill:#27DEBF;" d="M296.923,290.503c0.464-0.273,1.228-0.271,1.707,0.004l1.516,0.872l-1.681,0.99
					l-1.515-0.872C296.471,291.221,296.459,290.776,296.923,290.503z"/>
				<path id="XMLID_132_" style="fill:#37474F;" d="M300.145,288.642c0.464-0.273,1.228-0.271,1.706,0.005l18.579,10.726
					c0.478,0.276,0.49,0.722,0.026,0.995c-0.464,0.273-1.228,0.271-1.706-0.005l-18.578-10.726
					C299.693,289.361,299.681,288.916,300.145,288.642z"/>
				<path id="XMLID_131_" style="fill:#27DEBF;" d="M300.145,288.642c0.464-0.273,1.228-0.271,1.706,0.005l6.569,3.793l-1.681,0.99
					l-6.568-3.793C299.693,289.361,299.681,288.916,300.145,288.642z"/>
				<g id="XMLID_126_">
					<path id="XMLID_130_" style="fill:#37474F;" d="M303.368,286.782c0.464-0.273,1.228-0.271,1.706,0.005l18.579,10.726
						c0.478,0.276,0.49,0.722,0.026,0.995c-0.464,0.273-1.228,0.271-1.706-0.005l-18.578-10.726
						C302.916,287.501,302.905,287.055,303.368,286.782z"/>
					<path id="XMLID_129_" style="fill:#27DEBF;" d="M303.368,286.782c0.464-0.273,1.228-0.271,1.706,0.005l13.305,7.681
						l-1.681,0.99l-13.305-7.681C302.916,287.501,302.905,287.055,303.368,286.782z"/>
					<path id="XMLID_128_" style="fill:#37474F;" d="M306.59,284.921c0.464-0.273,1.228-0.271,1.706,0.005l18.579,10.726
						c0.478,0.276,0.49,0.721,0.026,0.995c-0.464,0.273-1.228,0.271-1.706-0.005l-18.578-10.726
						C306.138,285.64,306.126,285.195,306.59,284.921z"/>
					<path id="XMLID_127_" style="fill:#27DEBF;" d="M306.59,284.921c0.464-0.273,1.228-0.271,1.706,0.005l16.734,9.656l-1.681,0.99
						l-16.734-9.656C306.138,285.64,306.126,285.195,306.59,284.921z"/>
				</g>
			</g>
			<g id="XMLID_118_">
				<g id="XMLID_122_">
					<path id="XMLID_124_" style="fill:#37474F;" d="M316.401,321.456v-3.194c0-0.828,0.455-1.762,1.016-2.086
						c0.561-0.324,1.016,0.085,1.016,0.914v3.194c0,0.828-0.455,1.763-1.016,2.086C316.856,322.693,316.401,322.284,316.401,321.456
						z"/>
					<path id="XMLID_123_" style="fill:#27DEBF;" d="M317.466,316.656c-0.372,0.214-0.673,0.736-0.673,1.166
						c0,0.429,0.301,0.603,0.673,0.389s0.673-0.737,0.673-1.166S317.837,316.441,317.466,316.656z"/>
				</g>
				<g id="XMLID_119_">
					<path id="XMLID_121_" style="fill:#37474F;" d="M319.607,319.616v-3.194c0-0.828,0.455-1.762,1.016-2.086
						c0.561-0.324,1.016,0.085,1.016,0.914v3.194c0,0.828-0.455,1.762-1.016,2.086C320.062,320.854,319.607,320.445,319.607,319.616
						z"/>
					<path id="XMLID_120_" style="fill:#27DEBF;" d="M320.622,318.495c-0.372,0.215-0.673,0.736-0.673,1.166
						c0,0.429,0.301,0.603,0.673,0.388s0.673-0.737,0.673-1.166C321.296,318.455,320.994,318.281,320.622,318.495z"/>
				</g>
			</g>
		</g>
	</g>
</g>
<g id="Character">
	<g id="XMLID_1317_">
		<g id="Legs">
			<g id="XMLID_1365_">
				<g id="XMLID_1370_">
					<path id="XMLID_1389_" style="fill:#263238;" d="M379.474,359.071c0.38,0.505,0.449,1.671,0.835,3.247
						c0.386,1.576,0.516,2.798,0.258,3.57c-0.258,0.772-1.953,2.508-4.032,3.151c-2.078,0.643-4.635,0.103-7.11-1.376
						c-2.475-1.479-4.343-3.279-7.868-4.282c-3.525-1.003-5.289-1.817-6.958-3.158c-1.954-1.569-3.215-3.918,0.524-4.922
						c3.77-1.011,10.522,0.553,17.918,0.874L379.474,359.071z"/>
				</g>
				<g id="XMLID_1368_">
					<path id="XMLID_1369_" style="fill:#FFA8A7;" d="M379.474,354.448v5.54c0,0-0.761,1.842-3.92,1.96
						c-1.926,0.072-3.33-0.81-4.191-2.007v-5.493H379.474z"/>
				</g>
				<g id="XMLID_1366_">
					<path id="XMLID_1367_" style="fill:#37474F;" d="M368.892,318.201c-0.04,6.892,1.935,38.675,1.935,38.675s2.818,3.567,8.941,0
						l2.078-35.267L368.892,318.201z"/>
				</g>
			</g>
			<g id="XMLID_1353_">
				<g id="XMLID_1356_">
					<path id="XMLID_28704_" style="fill:#263238;" d="M362.845,369.905c0.38,0.505,0.449,1.671,0.835,3.247
						c0.386,1.576,0.516,2.798,0.258,3.57c-0.258,0.772-1.953,2.508-4.032,3.151c-2.078,0.643-4.635,0.103-7.11-1.376
						c-2.475-1.479-4.343-3.279-7.868-4.282c-3.525-1.003-5.289-1.817-6.958-3.158c-1.954-1.569-3.215-3.918,0.524-4.922
						c3.77-1.012,10.522,0.553,17.918,0.874L362.845,369.905z"/>
				</g>
				<g id="XMLID_1355_">
					<path id="XMLID_28702_" style="fill:#FFA8A7;" d="M362.845,365.281v5.54c0,0-0.761,1.842-3.92,1.96
						c-1.926,0.071-3.33-0.81-4.191-2.007v-5.493H362.845z"/>
				</g>
				<g id="XMLID_1354_">
					<path id="XMLID_28700_" style="fill:#37474F;" d="M352.264,329.035c-0.04,6.892,1.935,38.674,1.935,38.674s2.818,3.567,8.941,0
						l2.078-35.267L352.264,329.035z"/>
				</g>
			</g>
		</g>
		<g id="Chair">
			<g id="XMLID_42935_">
				<g id="XMLID_42937_">
					<g id="XMLID_42942_">
						<g id="XMLID_42944_">
							<g id="XMLID_42975_">
								<path id="XMLID_42977_" style="fill:#455A64;" d="M373.692,394.444c0,0.283,0.033,0.541,0.083,0.773
									c0.125,0.491,0.366,0.857,0.698,1.081l0.025,0.017c0.541,0.349,1.306,0.316,2.146-0.166c1.63-0.94,2.952-3.227,2.952-5.115
									c0-0.915-0.324-1.547-0.832-1.871l0.008-0.008l-0.141-0.083h-0.008c-0.358-0.158-0.782-0.183-1.256-0.05
									c-0.233,0.067-0.474,0.175-0.724,0.316C375.014,390.277,373.692,392.564,373.692,394.444z"/>
								<path id="XMLID_42976_" style="fill:#263238;" d="M374.498,388.098c0.466-0.266,0.915-0.399,1.314-0.399
									c0.308,0,0.59,0.083,0.832,0.233l0.075,0.042l1.905,1.098c-0.358-0.158-0.782-0.183-1.256-0.05
									c-0.233,0.067-0.474,0.175-0.724,0.316c-1.63,0.94-2.952,3.227-2.952,5.106c0,0.283,0.033,0.541,0.083,0.773
									c0.125,0.491,0.366,0.857,0.698,1.081l-1.954-1.131l-0.033-0.017l-0.166-0.1c-0.017-0.008-0.033-0.017-0.05-0.034
									c-0.449-0.333-0.724-0.965-0.724-1.813C371.546,391.325,372.868,389.038,374.498,388.098z"/>
							</g>
							<g id="XMLID_42972_">
								<path id="XMLID_42974_" style="fill:#455A64;" d="M405.63,377.269c0,0.283,0.033,0.541,0.083,0.773
									c0.125,0.491,0.366,0.857,0.699,1.081l0.025,0.017c0.541,0.349,1.306,0.316,2.146-0.166c1.63-0.94,2.952-3.227,2.952-5.115
									c0-0.915-0.324-1.547-0.831-1.871l0.008-0.008l-0.141-0.083h-0.008c-0.358-0.158-0.782-0.183-1.256-0.05
									c-0.233,0.067-0.474,0.175-0.724,0.316C406.953,373.103,405.63,375.39,405.63,377.269z"/>
								<path id="XMLID_42973_" style="fill:#263238;" d="M406.437,370.924c0.466-0.266,0.915-0.399,1.314-0.399
									c0.307,0,0.591,0.083,0.832,0.233l0.075,0.041l1.905,1.098c-0.358-0.158-0.782-0.183-1.256-0.05
									c-0.233,0.067-0.474,0.175-0.724,0.316c-1.63,0.94-2.952,3.227-2.952,5.106c0,0.283,0.033,0.541,0.083,0.773
									c0.125,0.491,0.366,0.857,0.699,1.081l-1.954-1.131l-0.033-0.017l-0.166-0.1c-0.017-0.008-0.033-0.017-0.05-0.033
									c-0.449-0.333-0.723-0.965-0.723-1.813C403.485,374.151,404.807,371.864,406.437,370.924z"/>
							</g>
							<g id="XMLID_42969_">
								<path id="XMLID_42971_" style="fill:#455A64;" d="M399.933,401.15c0,0.283-0.033,0.54-0.083,0.773
									c-0.125,0.491-0.366,0.857-0.699,1.081l-0.025,0.017c-0.541,0.349-1.306,0.316-2.146-0.166
									c-1.63-0.94-2.952-3.227-2.952-5.115c0-0.915,0.324-1.547,0.832-1.871l-0.008-0.008l0.141-0.083h0.008
									c0.358-0.158,0.782-0.183,1.256-0.05c0.233,0.066,0.474,0.174,0.724,0.316C398.611,396.983,399.933,399.27,399.933,401.15z"
									/>
								<path id="XMLID_42970_" style="fill:#263238;" d="M399.127,394.804c-0.466-0.266-0.915-0.399-1.314-0.399
									c-0.308,0-0.59,0.083-0.832,0.233l-0.075,0.042l-1.905,1.098c0.358-0.158,0.782-0.183,1.256-0.05
									c0.233,0.066,0.474,0.174,0.724,0.316c1.63,0.94,2.952,3.227,2.952,5.107c0,0.283-0.033,0.54-0.083,0.773
									c-0.125,0.491-0.366,0.857-0.699,1.081l1.954-1.131l0.033-0.016l0.166-0.1c0.017-0.008,0.033-0.017,0.05-0.033
									c0.449-0.333,0.724-0.965,0.724-1.813C402.079,398.031,400.757,395.744,399.127,394.804z"/>
							</g>
							<g id="XMLID_42966_">
								<path id="XMLID_42968_" style="fill:#455A64;" d="M420.666,390.994c0,0.283-0.033,0.541-0.083,0.773
									c-0.125,0.491-0.366,0.857-0.698,1.081l-0.025,0.016c-0.541,0.349-1.306,0.316-2.146-0.166
									c-1.63-0.94-2.952-3.227-2.952-5.115c0-0.915,0.324-1.547,0.832-1.871l-0.008-0.008l0.141-0.083h0.008
									c0.358-0.158,0.782-0.183,1.256-0.05c0.233,0.067,0.474,0.175,0.723,0.316C419.343,386.828,420.666,389.115,420.666,390.994
									z"/>
								<path id="XMLID_42967_" style="fill:#263238;" d="M419.859,384.649c-0.466-0.266-0.915-0.399-1.314-0.399
									c-0.308,0-0.59,0.083-0.832,0.233l-0.075,0.042l-1.905,1.098c0.358-0.158,0.782-0.183,1.256-0.05
									c0.233,0.067,0.474,0.175,0.723,0.316c1.63,0.94,2.952,3.227,2.952,5.106c0,0.283-0.033,0.541-0.083,0.773
									c-0.125,0.491-0.366,0.857-0.698,1.081l1.954-1.131l0.033-0.017l0.166-0.1c0.017-0.008,0.033-0.017,0.05-0.034
									c0.449-0.333,0.724-0.965,0.724-1.813C422.811,387.875,421.489,385.588,419.859,384.649z"/>
							</g>
							<g id="XMLID_42963_">
								<path id="XMLID_42965_" style="fill:#455A64;" d="M380.59,378.539c0,0.283-0.033,0.541-0.083,0.773
									c-0.125,0.49-0.366,0.856-0.699,1.081l-0.025,0.017c-0.541,0.349-1.306,0.316-2.146-0.166
									c-1.63-0.94-2.952-3.227-2.952-5.115c0-0.915,0.324-1.547,0.832-1.871l-0.008-0.008l0.141-0.083h0.008
									c0.358-0.158,0.782-0.183,1.256-0.05c0.233,0.067,0.474,0.174,0.724,0.316C379.268,374.372,380.59,376.659,380.59,378.539z"
									/>
								<path id="XMLID_42964_" style="fill:#263238;" d="M379.783,372.193c-0.466-0.266-0.915-0.399-1.314-0.399
									c-0.308,0-0.591,0.083-0.832,0.233l-0.075,0.042l-1.905,1.098c0.358-0.158,0.782-0.183,1.256-0.05
									c0.233,0.067,0.474,0.174,0.724,0.316c1.63,0.94,2.952,3.227,2.952,5.106c0,0.283-0.033,0.541-0.083,0.773
									c-0.125,0.49-0.366,0.856-0.699,1.081l1.954-1.131l0.033-0.017l0.166-0.1c0.017-0.008,0.033-0.017,0.05-0.033
									c0.449-0.333,0.723-0.965,0.723-1.813C382.736,375.42,381.413,373.133,379.783,372.193z"/>
							</g>
							<g id="XMLID_42960_">
								<polygon id="XMLID_42962_" style="fill:#F5F5F5;" points="398.214,372.298 408.755,369.276 408.755,371.527 
									398.214,377.608 								"/>
								<polygon id="XMLID_42961_" style="fill:#FAFAFA;" points="398.214,372.298 397.175,371.662 407.747,368.773 
									408.755,369.276 								"/>
							</g>
							<g id="XMLID_42957_">
								<polygon id="XMLID_42959_" style="fill:#F5F5F5;" points="393.655,379.017 378.711,373.418 378.711,371.139 
									393.655,372.474 								"/>
								<polygon id="XMLID_42958_" style="fill:#FAFAFA;" points="378.711,371.139 379.809,370.849 394.543,371.801 
									393.655,372.474 								"/>
							</g>
							<path id="XMLID_42956_" style="fill:#FAFAFA;" d="M393.254,378.297c0,1.693,5.198,1.693,5.198,0v-14.778h-5.198V378.297z"/>
							<g id="XMLID_42952_">
								<path id="XMLID_42955_" style="fill:#FAFAFA;" d="M397.15,374.452l2.859,18.557h-1.954l-2.673-18.557
									C396.05,374.642,396.618,374.591,397.15,374.452z"/>
								<polygon id="XMLID_42954_" style="fill:#F5F5F5;" points="395.381,374.452 395.381,379.547 398.054,396.15 398.054,393.008 
																	"/>
								<rect id="XMLID_42953_" x="398.054" y="393.008" style="fill:#EBEBEB;" width="1.954" height="3.141"/>
							</g>
							<g id="XMLID_42948_">
								<polygon id="XMLID_42951_" style="fill:#F5F5F5;" points="394.491,379.396 375.221,389.498 375.221,386.387 
									394.491,374.466 								"/>
								<path id="XMLID_42950_" style="fill:#FAFAFA;" d="M394.491,374.466c-0.461-0.066-0.886-0.221-1.237-0.561l-19.237,11.669
									l1.203,0.812L394.491,374.466z"/>
								<polygon id="XMLID_42949_" style="fill:#EBEBEB;" points="375.221,389.498 375.221,386.387 374.018,385.575 374.018,388.59 
																	"/>
							</g>
							<polygon id="XMLID_42947_" style="fill:#F5F5F5;" points="418.786,385.93 398.199,378.881 398.199,374.257 418.786,382.82 
															"/>
							<path id="XMLID_42946_" style="fill:#FAFAFA;" d="M398.199,374.257c0.168-0.045,0.24-0.345,0.253-0.799l20.943,9.111
								l-0.609,0.251L398.199,374.257z"/>
							<polygon id="XMLID_42945_" style="fill:#EBEBEB;" points="419.395,382.569 419.395,385.579 418.786,385.93 418.786,382.82 
															"/>
						</g>
						<path id="XMLID_42943_" style="fill:#F0F0F0;" d="M400.255,337.773h-8.803v30.479c0,2.53,8.803,2.53,8.803,0L400.255,337.773z
							"/>
					</g>
					<g id="XMLID_42938_">
						<path id="XMLID_42941_" style="fill:#27DEBF;" d="M361.957,340.507v-0.001c0-1.571,0.838-3.023,2.199-3.809l30.795-17.778
							c1.361-0.786,3.037-0.786,4.398,0l30.793,17.78c1.361,0.786,2.199,2.238,2.199,3.809l0,0l-35.191,20.32L361.957,340.507z"/>
						<path id="XMLID_42940_" style="fill:#FAFAFA;" d="M361.957,340.505v2.545l33.017,19.061c0.674,0.391,1.422,0.582,2.171,0.582
							c0.757,0,1.505-0.191,2.179-0.582l33.017-19.061v-2.545l-33.017,19.061c-0.674,0.391-1.422,0.59-2.179,0.59
							c-0.748,0-1.497-0.2-2.171-0.59L361.957,340.505z"/>
						<path id="XMLID_42939_" style="fill:#F5F5F5;" d="M361.957,340.505v2.545l33.017,19.061c0.674,0.391,1.422,0.582,2.171,0.582
							v-2.537c-0.748,0-1.497-0.2-2.171-0.59L361.957,340.505z"/>
					</g>
				</g>
				<path id="XMLID_42936_" style="opacity:0.1;" d="M361.957,340.506c0-0.694,0.172-1.36,0.471-1.961l33.267,19.207
					c0.896,0.518,2.001,0.518,2.897,0.001l33.28-19.199c0.297,0.598,0.468,1.262,0.468,1.953l-35.191,20.32l-35.193-20.32V340.506z"
					/>
			</g>
		</g>
		<g id="Character_2_">
			<g id="XMLID_1371_">
				<g id="XMLID_1387_">
					<path id="XMLID_1388_" style="fill:#263238;" d="M421.688,326.645c0,0-28.566-8.62-33.532-9.979
						c-4.966-1.359-14.492-3.649-17.276-2.402s-4.197,2.693-4.453,6.709c-0.052,0.755,0,4.43,0,4.43s13.807,4.274,25.119,4.274
						C402.859,329.676,421.688,326.645,421.688,326.645z"/>
				</g>
				<g id="XMLID_1385_">
					<polygon id="XMLID_1386_" style="fill:#FFA8A7;" points="397.273,278.095 399.172,288.337 409.673,289.549 408.159,275.413 
											"/>
				</g>
				<g id="XMLID_14575_">
					<g id="XMLID_1383_">
						<path id="XMLID_1384_" style="fill:#F28F8F;" d="M387.47,269.917c0,0-1.378,4.225-0.957,4.485
							c0.422,0.26,2.297,0.134,2.297,0.134L387.47,269.917z"/>
					</g>
					<g id="XMLID_1381_">
						<path id="XMLID_1382_" style="fill:#FFA8A7;" d="M390.175,256.376c-1.809,1.903-3.527,5.09-2.77,13.16
							c0.831,8.844,3.474,11.202,4.588,11.721c1.664,0.775,7.326-0.581,9.168-1.938c2.304-1.698,6.644-5.925,7.775-11.135
							c1.33-6.13-0.372-13.094-4.851-14.502C397.783,251.698,391.706,254.765,390.175,256.376z"/>
					</g>
					<g id="XMLID_14583_">
						<path id="XMLID_1380_" style="fill:#263238;" d="M386.048,260.728c1.074,2.026,3.103,7.063,8.849,8.491
							c0,0,0.318-3.434,3.163-3.467c2.864-0.034,3.816,3.47,2.404,5.92c-1.414,2.45-3.19,1.885-3.19,1.885s0.285,4.822,3.768,6.545
							c0,0,4.18,1.904,7.995-0.53c1.717-1.095,3.7-5.842,4.724-9.654c2.165-8.064,1.78-14.238-3.348-15.492
							c-1.078-3.382-2.814-4.468-6.04-4.681c-6.943-0.458-11.43,4.681-17.202,4.681
							C384.159,254.425,384.821,258.414,386.048,260.728z"/>
					</g>
					<g id="XMLID_1378_">
						<path id="XMLID_1379_" style="fill:#263238;" d="M410.285,254.999l3.475-1.488c-0.411-0.96-1.522-1.404-2.482-0.993
							C410.319,252.928,409.874,254.039,410.285,254.999z"/>
					</g>
				</g>
				<g id="XMLID_1376_">
					<path id="XMLID_1377_" style="fill:#37474F;" d="M421.619,323.212c-0.01,5.487,0.516,11.197-1.772,15.218
						c-2.211,3.887-12.654,12.297-24.328,10.332c-7.625-1.283-32.27-10.675-32.27-10.675s-10.907-4.034-10.956-6.903
						c-0.012-0.702-0.076-1.431-0.03-2.191c0.23-3.818,1.773-7.931,9.756-7.72c8.719,0.231,34.589,4.469,34.589,4.469
						L421.619,323.212z"/>
				</g>
				<g id="XMLID_1374_">
					<path id="XMLID_1375_" style="fill:#455A64;" d="M419.588,287.739c-0.943-2.866-4.579-5.986-8.218-5.31
						c-6.685,1.242-13.997,3.407-15.935,3.979l-0.002-0.001c0,0,0.87,14.73-6.688,19.188l-0.997,18.759c0,0,1.871,3.736,4.757,5.571
						c3.122,1.985,7.468,4.961,15.316,4.31c9.317-0.772,13.867-7.592,13.867-7.592s-0.085-17.725-0.385-25.659
						C421.049,294.245,420.236,289.708,419.588,287.739z"/>
				</g>
				<g id="XMLID_1372_">
					<path id="XMLID_1373_" style="fill:#37474F;" d="M388.552,309.231c0,0,3.949-4.096,5.339-8.851c0,0,0,6.956-5.416,10.714
						L388.552,309.231z"/>
				</g>
			</g>
			<g id="XMLID_1357_">
				<g id="XMLID_1362_">
					<path id="XMLID_1363_" style="fill:#FFA8A7;" d="M395.433,286.409c-4.126,1.238-6.639,1.462-11.198,8.475
						c-4.559,7.013-14.545,20.925-15.534,22.597c-1.376,2.325-1.968,5.094-0.781,7.23c1.109,1.994,4.337,1.121,8.861-2.848
						c4.375-3.838,13.043-14.695,13.043-14.695S394.343,297.273,395.433,286.409z"/>
				</g>
				<g id="XMLID_1358_">
					<path id="XMLID_1359_" style="fill:#455A64;" d="M395.433,286.409c0,0-3.679,0.77-5.965,1.889
						c-0.703,0.344-3.023,1.233-4.51,3.704c-3.19,5.299-7.75,12.843-7.75,12.843s-0.779,6.57,7.199,8.859l4.243-4.579
						c1.73-1.866,3.175-3.981,4.228-6.297C394.676,298.877,396.726,292.606,395.433,286.409z"/>
				</g>
			</g>
			<path id="XMLID_1361_" style="fill:#FFA8A7;" d="M369.309,325.693c-3.816-0.463-12.37-12.185-15.222-15.912
				c-2.853-3.727-5.236-5.937-7.81-7.348c-2.574-1.412-4.796-3.636-5.497-8.126c-0.652-4.18,3.243-6.845,6.428-2.643
				c2.022,2.668,4.063,4.354,4.171,3.909c0.108-0.445-0.629-2.303-0.611-4.238c0.022-2.329,1.652-0.798,2.139,0.018
				c0.487,0.816,1.056,2.145,1.721,3.848c0.814,2.084,0.478,4.194,1.468,5.615c0.991,1.421,14.289,14.162,14.289,14.162
				L369.309,325.693z"/>
		</g>
		<g id="XMLID_42855_">
			<polygon id="XMLID_42863_" style="fill:#27DEBF;" points="434.05,289.695 434.05,329.026 402.826,347.121 402.826,307.81 			"/>
			<polygon id="XMLID_1352_" style="opacity:0.1;" points="434.05,289.695 434.05,329.026 402.826,347.121 402.826,307.81 			"/>
			<path id="XMLID_42862_" style="fill:#27DEBF;" d="M399.987,345.482l2.839,1.639c0,0,0-31.013,0-36.053
				c0-1.708,0.518-2.557,1.203-2.934c2.379-1.465,5.526,1.648,5.526,1.648l0.009-2.619l30.163-17.467
				c-2.838-1.639-4.7-2.714-10.426,0.535c-5.726,3.249-22.533,12.966-25.191,14.606c-2.131,1.315-4.121,2.846-4.121,6.418
				C399.988,317.444,399.987,345.482,399.987,345.482z"/>
			<path id="XMLID_42861_" style="opacity:0.4;fill:#FFFFFF;" d="M404.109,304.836c2.619-1.701,19.465-11.356,25.191-14.606
				c5.726-3.249,7.588-2.174,10.426-0.535l-30.163,17.467C408.539,306.035,406.491,304.806,404.109,304.836z"/>
			<polygon id="XMLID_42860_" style="fill:#27DEBF;" points="409.554,309.781 439.727,292.248 439.727,289.695 409.564,307.162 			
				"/>
			<polygon id="XMLID_1364_" style="opacity:0.2;" points="409.554,309.781 439.727,292.248 439.727,289.695 409.564,307.162 			"/>
			<g id="XMLID_42858_">
				<path id="XMLID_42859_" style="fill:#E6E6E6;" d="M410.007,359.634c0.47,0,0.939-0.124,1.367-0.371
					c0.855-0.494,1.366-1.378,1.366-2.365v-20.632c0-0.772-0.626-1.397-1.398-1.397c-0.772,0-1.397,0.626-1.397,1.397v20.522
					l-2.223-1.284c-0.668-0.386-1.522-0.157-1.909,0.512c-0.385,0.668-0.157,1.523,0.512,1.909l2.317,1.338
					C409.07,359.511,409.538,359.634,410.007,359.634z"/>
			</g>
			<g id="XMLID_42856_">
				<path id="XMLID_42857_" style="fill:#E6E6E6;" d="M427.078,349.686c0.47,0,0.939-0.123,1.367-0.37
					c0.855-0.494,1.365-1.378,1.365-2.365v-20.632c0-0.772-0.626-1.398-1.398-1.398c-0.772,0-1.397,0.626-1.397,1.398v20.522
					l-2.223-1.284c-0.668-0.386-1.522-0.157-1.909,0.512c-0.385,0.668-0.157,1.523,0.512,1.909l2.317,1.338
					C426.14,349.562,426.609,349.686,427.078,349.686z"/>
			</g>
		</g>
	</g>
</g>
</svg>
